<?xml version="1.0" encoding="UTF-8" standalone="no"?>
<svg
   width="2550"
   height="1650"
   viewBox="0 0 10200 6600"
   version="1.1"
   id="svg13"
   sodipodi:docname="bordureTest.svg"
   inkscape:export-filename="test.svg"
   inkscape:export-xdpi="6"
   inkscape:export-ydpi="6"
   inkscape:version="1.2.2 (732a01da63, 2022-12-09)"
   xmlns:inkscape="http://www.inkscape.org/namespaces/inkscape"
   xmlns:sodipodi="http://sodipodi.sourceforge.net/DTD/sodipodi-0.dtd"
   xmlns="http://www.w3.org/2000/svg"
   xmlns:svg="http://www.w3.org/2000/svg"
   xmlns:rdf="http://www.w3.org/1999/02/22-rdf-syntax-ns#"
   xmlns:x="adobe:ns:meta/"
   xmlns:xmp="http://ns.adobe.com/xap/1.0/">
  <sodipodi:namedview
     id="namedview15"
     pagecolor="#ffffff"
     bordercolor="#000000"
     borderopacity="0.25"
     inkscape:showpageshadow="2"
     inkscape:pageopacity="0.0"
     inkscape:pagecheckerboard="0"
     inkscape:deskcolor="#d1d1d1"
     showgrid="false"
     inkscape:zoom="0.35410798"
     inkscape:cx="1125.3629"
     inkscape:cy="1008.167"
     inkscape:window-width="2560"
     inkscape:window-height="1369"
     inkscape:window-x="1912"
     inkscape:window-y="-8"
     inkscape:window-maximized="1"
     inkscape:current-layer="svg13" />
  <metadata
     id="metadata2">
<?xpacket begin="﻿" id="W5M0MpCehiHzreSzNTczkc9d"?>    <x:xmpmeta
       x:xmptk="Adobe XMP Core 7.2-c000 79.1b65a79, 2022/06/13-17:46:14        ">
      <rdf:RDF>
        <rdf:Description
           rdf:about="">
          <xmp:CreatorTool>Adobe Photoshop 23.5 (Windows)</xmp:CreatorTool>
        </rdf:Description>
      </rdf:RDF>
    </x:xmpmeta>
<?xpacket end="w"?>  </metadata>
  <defs
     id="defs6">
    <style
       id="style4">
      .cls-1 {
        fill: #c8ad7f;
      }

      .cls-1, .cls-2 {
        fill-rule: evenodd;
      }
    </style>
  </defs>
  <path
     id="bordure_1"
     class="cls-1"
     d="M 0,0 H 10200 V 6600 H 0 Z m 6576,45 c 0.02,3.062 -0.96,1.4 1,4 -0.33,-1.333 -0.67,-2.667 -1,-4 z m 2296,112 c -15.25,9.776 -86.94,-4.288 -120,1 -16.25,2.6 -44.29,3.93 -69,0 l -169,2 -88,-2 c -18.49,4.033 -42.66,-5.213 -70,0 -13.73,2.618 -48.6,4.67 -69,0 -26.1,-5.975 -40.5,4.539 -64,2 l -128,-2 c -64.43,6.592 -138.04,-5.263 -201,1 -48.4,4.813 -104.81,-5.7 -147,0 -33.75,4.56 -98.15,4.833 -134,-1 l -22,2 -80,-1 -27,2 c -27.71,-2.886 -67.16,2.643 -101,0 -42.39,-3.312 -88.98,-3.036 -132,0 l -87,-2 c -16.96,0.694 -49.24,3.987 -70,2 l -82,-2 c -27.66,4.278 -109.5,3.658 -134,-1 l -58,2 -263,-1 c -38.8,3.523 -105.28,3.778 -143,-1 -21.96,-2.781 -41.99,2.265 -57,0 l -23,2 c -40.38,-5.16 -77.26,6.026 -112,-2 -7.49,-1.73 -13.84,2.732 -18,3 -16.78,1.079 -37.66,-1.035 -59,-1 -59.91,0.1 -128.83,5.27 -184,-2 l -22,4 c -44.58,-1.671 -95.86,-1.93 -148,-1 l -238,-2 c -21.83,-2.65 -50.87,3.743 -74,3 -38.88,-1.25 -75.25,-2.923 -106,-1 -10.13,0.633 -23.05,-4.043 -36,-2 a 246.089,246.089 0 0 1 -48,3 c -47.58,-2.146 -109.33,-4.023 -152,-1 l -180,-2 c -73.39,4.677 -152.32,4.175 -227,0 -36.16,-2.021 -69.62,3.674 -103,2 -49.74,-2.5 -101.8,-5.194 -144,-3 -35.31,1.835 -73.77,6.535 -117,3 a 876.041,876.041 0 0 0 -137,0 l -34,-2 c -43.92,1.556 -83.91,-2.724 -129,0 -77.33,4.671 -156.35,5.248 -232,0 l -176,2 c -35.07,-3.081 -90.64,-2.4 -130,1 -26.29,2.271 -57.28,-3.314 -90,-1 -76.19,5.387 -170.43,-5.368 -245,0 -26.93,1.938 -65.07,0.892 -90,-3 l -36,2 c -37.09,-5.241 -72.86,1.23 -103,-2 l -78,2 -220,-2 -374,2 c -35.47,-4.261 -87,-4.437 -127,0 L 648,159 H 260 c -22.232,-1.046 -102.628,-5.861 -110,8 10.931,19.188 -4.134,91.8 0,117 2.787,17 -0.534,35.983 2,49 q -1,5.5 -2,11 c 3.237,10.871 3.275,35.13 0,46 -2.624,8.7 2.357,33.606 0,45 -2.194,10.6 2,52.482 2,69 q -0.5,71.993 -1,144 0.5,164.482 1,329 v 91 q -1,12 -2,24 c 8.815,55.64 2,146.47 2,213 0,15.75 -3.735,39.87 -2,52 v 40 c 5.992,6.18 2,35.19 2,46 0,43.11 2.774,87.39 -2,128 1,2.67 2,5.33 3,8 v 251 q 1,880.9 2,1762 c 1.663,19.69 -2.641,48.98 -2,68 q 0.5,28.995 1,58 -0.5,21 -1,42 c 7.064,44.39 -6.888,104.99 0,152 6.525,44.53 -6.618,99.31 0,144 5.061,34.17 -0.091,68.62 0,106 q 1,138.99 2,278 -1.5,19.5 -3,39 c -2.394,21.74 2.291,40.77 1,58 -3.347,44.65 7.026,98.92 3,135 -6.368,57.06 -5.735,138.88 -1,191 2.776,30.55 -5.5,75.47 -1,105 v 169 c 1.73,19.69 -4.6,61.34 1,69 -5.423,17.82 2.243,45.13 0,62 -9.892,74.42 4.678,139.58 -1,226 v 245 q -0.5,52.5 -1,105 0.5,51.99 1,104 -0.5,69.99 -1,140 c -2.441,15.36 -2.6,41.16 0,54 q 0.5,118.485 1,237 c 2.416,21.91 -7.06,55.99 1,76 1.393,1.92 0.1,0.6 2,2 9.162,5.77 34.7,0.28 53,2 q 65.993,0.495 132,1 55.994,-0.495 112,-1 42,1.005 84,2 c 24.793,-2.86 54.655,2.06 81,0 50.546,-3.96 88.481,-3.53 139,0 q 56.495,-0.495 113,-1 c 44.331,5.74 102.269,-3.9 141,-2 79.67,3.91 158.16,7.16 228,0 35.57,-3.65 78.41,7.11 114,3 44.42,-5.13 93.38,-2.85 134,0 86.46,6.06 158.96,-9.75 239,0 q 25.995,-0.495 52,-1 104.985,0.495 210,1 c 12.82,1.73 36.49,-2.39 49,-2 q 135.48,1.005 271,2 185.475,-0.495 371,-1 120.99,0.495 242,1 c 14.44,-0.02 39.92,-4.32 50,-3 23.95,3.13 52.09,1.87 81,2 h 34 c 14.9,3.71 36.7,2.75 58,2 49.95,-1.77 89.8,4.22 136,1 h 322 q 124.98,-0.495 250,-1 h 258 q 162.48,-0.495 325,-1 590.445,0.495 1181,1 25.5,-1.005 51,-2 85.485,0.495 171,1 c 17,0 38.1,-3.31 52,-2 h 920 q 258.48,0.495 517,1 h 76 q 70.5,1.005 141,2 62.49,-1.005 125,-2 119.985,0.495 240,1 52.5,-0.495 105,-1 c 77.56,-2.82 143.42,2.6 209,-1 q 152.49,1.005 305,2 23.49,-1.005 47,-2 c 33.18,-2.57 78.86,0.71 113,2 l 41,-3 c 14.98,1.62 47.39,3.96 67,3 l 22,-3 c 19.39,4.71 63.63,4.94 88,3 29.59,-2.36 58.99,-1.09 93,-1 17.87,0.05 35.48,-1.96 46,0 24.4,4.53 64.81,-2.82 90,0 16.3,1.82 37.91,-0.36 51,-2 15.78,-1.97 41.9,2.29 64,2 q 12.495,-1.005 25,-2 c 33.87,5.34 92.13,5.26 124,0 q 6,1.005 12,2 c 18.14,-0.54 25.24,-0.51 44,1 37.51,3.03 92.77,-2.57 128,-3 79.46,-0.97 143.23,1.13 218,0 43.82,-0.66 85.2,7.88 124,0 26.27,-5.33 92.5,13.31 117,-1 0,-48.27 2,-86.74 2,-142 -0.3,-25 -0.7,-50 -1,-75 3.7,-28.77 4.1,-75.14 0,-101 -6.2,-39.45 5.1,-71.94 -2,-109 -1.2,-5.99 0.5,-38.65 2,-47 5.2,-29.59 -5.5,-78.29 -2,-106 1.1,-8.97 4.2,-28.75 0,-39 -2.7,-6.65 5,-41.29 2,-55 -9.7,-44.4 6.8,-113.38 -2,-156 -1.5,-7.41 3.2,-23.84 0,-35 0.7,-29 1.3,-58 2,-87 q -0.45,-76.485 -1,-153 c -3.4,-27.78 7.2,-53.69 -2,-76 -0.7,-1.66 3.1,-19 3,-23 -0.5,-29.95 4.2,-82.91 -2,-118 0.7,-5.33 1.3,-10.67 2,-16 q -1.05,-137.985 -2,-276 c -0.8,-3.59 3.2,-15.86 2,-23 -5.7,-34.37 4.6,-70.43 -2,-100 0.7,-10 1.3,-20 2,-30 -7.4,-46.67 8.8,-82.4 -2,-127 q 0.45,-114.495 1,-229 c -3.3,-31.66 7,-80.41 -1,-117 -2,-9.13 3.9,-17.23 0,-28 4.9,-18.78 4.5,-75.65 0,-96 -0.4,-1.83 2.5,-10.04 2,-15 -2.1,-20.03 3.2,-46.03 -2,-64 0.7,-4.67 1.3,-9.33 2,-14 -2.1,-18.6 4,-53.95 -2,-75 0.7,-11 1.3,-22 2,-33 -0.4,-35 5.2,-100.71 -2,-131 0.7,-18.33 1.3,-36.67 2,-55 3.1,-17.26 2,-47.01 -2,-61 0.7,-6.33 1.3,-12.67 2,-19 -0.1,-20.91 1.5,-56.65 -2,-74 -0.6,-2.97 2,-16.58 2,-23 0,-32.29 4.1,-63.14 0,-95 q -0.45,-135.48 -1,-271 c 4.6,-28.46 3.7,-68.04 -1,-89 0.7,-24 1.3,-48 2,-72 q -0.45,-704.925 -1,-1410 c -3.4,-29.66 -1.2,-105.54 1,-114 -0.3,-10 -0.7,-20 -1,-30 q 0.45,-60.99 1,-122 c 1.6,-8.7 0.7,-57.77 -2,-62 3.3,-8.29 3,-21.3 0,-33 -3.7,-14.33 0.7,-57.87 1,-84 0.3,-34.52 -1,-70.94 -1,-110 0,-13.12 3.9,-32.82 0,-41 7.4,-22.9 1.5,-86.523 -4,-118 0.7,-18 1.3,-36 2,-54 1.3,-43.022 4.2,-80.091 -1,-118 v -72 q -0.45,-167.984 -1,-336 c 0,-36.39 6.6,-120.392 -2,-138 -21,-6.562 -56.15,-2 -81,-2 l -211,2 -606,-2 c -12.18,-3.04 -30.18,3.161 -39,2 -26.13,-3.44 -50.86,2.672 -78,0 -10.35,-1.019 -18.38,-4.368 -33,-3 -14.82,1.386 -36.26,4.046 -46,1 -23.26,-7.275 -44.75,7.909 -70,-1 z M 62,2010 c -2.167,6.26 -1.316,14.28 -7,16 0.666,1.33 1.333,2.67 2,4 4.946,-2.79 3.3,-4.22 9,-2 -0.791,-4.48 -2.893,-16.92 -4,-18 z" />
  <path
     id="bordure_2"
     class="cls-2"
     d="m 9012,157 c 16.5,7.666 46.32,-0.033 68,2 h 171 l 505,1 204,-1 c 18.54,0.489 60.9,-7.993 75,2 h 2 q 1.05,204.48 2,409 v 104 c 1.6,11.866 -4.5,31.906 2,38 0.8,5.395 -1.8,23.313 -2,31 -0.9,33.451 0,65.527 0,107 -0.3,12.332 -0.7,24.668 -1,37 11.1,53.263 5.2,109.81 5,167 -0.3,16 -0.7,32 -1,48 v 1046 q 0.45,87.495 1,175 c 2.6,18.09 -5.2,42.76 2,59 -4,11.93 -5.3,57.38 0,78 q -1.5,7.005 -3,14 c 2.4,23.52 1.1,48.9 3,77 2.7,40.14 -5.7,93.89 0,138 l -3,30 c 4.8,30.97 3.1,81.33 0,112 v 168 c -5.1,69.2 9.7,141.66 0,203 q 1.05,136.485 2,273 -1.05,428.46 -2,857 v 368 c 0.3,27.33 0.7,54.67 1,82 q -0.45,84.495 -1,169 c 0,21.49 2.6,42 2,60 -1.5,43.74 -3.7,100.48 -1,140 v 74 c -0.7,17.33 -1.3,34.67 -2,52 3.1,32.42 -3.4,76.98 1,110 v 317 c 0.3,26 0.7,52 1,78 q -0.45,122.49 -1,245 c 0.3,13 0.7,26 1,39 -0.4,30.03 -1.2,66.06 3,94 2.1,14.19 -0.7,35.22 -3,45 0.7,8 1.3,16 2,24 v 77 c 0,35.53 5.8,134.1 -6,154 h -46 q -22.995,-1.005 -46,-2 -25.5,1.005 -51,2 -127.98,-1.005 -256,-2 c -25.52,-3.92 -55.99,3.93 -80,0 q -52.995,1.005 -106,2 -671.43,-0.495 -1343,-1 c -24.48,4.83 -82.48,3 -110,0 l -52,3 q -42.495,-1.005 -85,-2 -54.495,1.005 -109,2 c -101.11,-7.76 -216.45,3.22 -308,-3 -42.42,-2.88 -78.35,4.19 -120,0 q -22.995,0.495 -46,1 c -54.7,-0.01 -139.71,6.28 -184,-2 -11.05,-2.07 -34.11,1.19 -43,2 -28.12,2.57 -66.11,0.08 -91,-2 -20.83,-1.74 -54.09,4.53 -73,0 q -23.505,1.005 -47,2 c -19.08,-5.27 -56.77,-3.33 -88,0 q -27,-1.005 -54,-2 c -35.47,0.17 -64.08,3.79 -94,0 q -50.49,1.005 -101,2 -60,-0.495 -120,-1 c -54.83,4.52 -126.42,2.67 -179,-1 -27.61,-1.93 -61.64,0.96 -98,1 -12.85,0.01 -28.83,2.38 -39,-1 -15.04,3.17 -44.5,5.57 -53,0 -12.73,5.3 -70.52,1.83 -80,1 q -19.995,-0.495 -40,-1 c -26.92,8.71 -80.49,-0.1 -120,2 -68.44,3.63 -153.84,5.77 -224,0 -72.31,-5.95 -158.38,8.28 -247,0 -30.51,-2.85 -60.44,4.26 -90,0 -37.05,-5.33 -68.49,5.83 -100,0 -30.62,-5.66 -81.98,4.67 -111,0 q -27,1.005 -54,2 -19.5,-1.005 -39,-2 c -26.74,-3.3 -49.76,2.76 -75,0 q -80.49,1.005 -161,2 -268.47,-1.005 -537,-2 -59.49,1.005 -119,2 -75.99,-0.495 -152,-1 -23.505,0.495 -47,1 c -20.98,-3.54 -57.56,-2.04 -79,0 -33.14,3.15 -83.04,0.7 -122,-2 -0.7,-0.45 -45.36,2.47 -52,2 -48.63,-3.47 -105.12,7.89 -155,0 q -30,1.005 -60,2 -90.99,-1.005 -182,-2 -23.505,0.495 -47,1 c -12.83,-0.05 -28.28,-0.89 -38,-4 q -16.995,0.495 -34,1 -45.495,-0.495 -91,-1 c -17.93,-4.18 -59.81,5.16 -65,0 -21.35,-4.64 -93.09,-1.7 -112,2 -3.75,0.73 -15.17,-2 -22,-2 -29.18,0 -52.91,-1.31 -78,2 -3.03,0.4 -19.81,-2 -29,-2 h -152 q -6.495,1.005 -13,2 c -17.44,-2.79 -47.57,-3.33 -65,0 -3.96,0.76 -18.58,-2 -26,-2 h -75 q -7.5,1.005 -15,2 c -14.97,-2.59 -49.36,-5.84 -64,0 -12.65,-3.46 -33.1,-2 -49,-2 q -60.495,0.495 -121,1 -114.99,-0.495 -230,-1 c -24.15,0 -51.35,3.85 -71,2 -32.99,-3.11 -95.31,-7.97 -134,0 -12.69,2.61 -36.57,-2.4 -48,0 -11.62,2.44 -36.36,-5.28 -49,0 -1.16,0.49 -37.68,-2.05 -45,-2 q -55.5,-0.495 -111,-1 c -40.51,4.48 -97.36,5.63 -145,0 -9.28,-1.1 -27.43,3.8 -35,3 -53.93,-5.71 -109.15,-1.47 -156,-2 -18.06,-0.2 -42,2.36 -53,0 -6.365,-1.37 -46.163,-0.06 -48,2 0,0 -49.336,-2 -54,-2 -29.935,0.02 -65.289,-0.01 -98,0 -13.252,0.01 -32.076,1.7 -40,0 -37.631,-8.09 -66.61,7.94 -94,-2 -2.906,-1.05 -41.465,3.14 -46,4 -16.188,3.08 -41.92,-3.83 -57,-3 l -27,3 c -29.923,-4.44 -68.207,2.77 -100,-2 -6.744,-1.01 -16.546,2.39 -20,2 -24.649,-2.82 -54.614,0.89 -73,-1 q -41.5,-1.005 -83,-2 c -31.437,2.72 -78.918,3.78 -102,-1 -4.867,-17.24 -2.521,-53.08 -1,-75 v -82 q -0.5,-19.5 -1,-39 c -0.675,-43.74 -1.989,-88.99 -2,-133 q 1.5,-89.985 3,-180 c -1.119,-23.59 -5.59,-56.17 -1,-76 q 0.5,-678.93 1,-1358 c -3.037,-44.57 1.183,-108.02 0,-153 q -0.5,-42 -1,-84 V 2989 q 0.5,-301.965 1,-604 -0.5,-81.99 -1,-164 c -1.447,-6.53 0,-25.42 0,-38 v -604 c -5.945,-21.12 2.115,-58.64 0,-84 -7.762,-93.05 -2,-195.48 -2,-297 v -97 q 0.5,-188.481 1,-377 -0.5,-279.972 -1,-560 l 5,-5 6428,2 48,-1 46,1 c 17.83,-0.76 49.02,-2.7 69,-2 l 383,2 155,-2 c 53.52,10.156 116.15,-4.435 171,0 57.84,4.676 133.32,3.723 186,0 16.33,-1.154 40.33,4.69 59,2 h 64 c 44.39,-0.766 89.43,-0.574 134,-2 l 171,3 c 25.86,-1.4 71.4,-6.448 103,-2 58.05,8.17 111.73,-8.645 169,0 h 271 l 113,-1 283,1 c 0.67,-1 1.33,-2 2,-3 z M 194,179 c -5.214,2.26 -18.278,1.772 -23,3 8.308,14.4 -0.484,83.87 2,98 q -0.5,14.5 -1,29 c 8.046,7.084 -6.332,50.886 0,73 2.24,7.822 3.93,38.377 0,51 v 167 q 0.5,339.966 1,680 -0.5,31.995 -1,64 c 2.438,10.84 0,39.48 0,57 q 1,45.99 2,92 c 0.885,19.79 -3.174,35.52 0,53 q -1,23.505 -2,47 c 1.639,7.62 3.087,31.12 0,37 3.141,8.65 3.025,26.18 2,38 l -2,23 c 5.908,22.95 3.731,67.22 1,102 q 0.5,90.495 1,181 -0.5,61.995 -1,124 1,66.495 2,133 c 2.649,14.97 -4.559,46.38 1,59 3.148,7.15 -3.608,41.36 0,60 4.581,23.67 -6.019,63.83 -2,89 v 121 c 7.372,40.17 -4.527,69.11 0,109 1.192,10.51 -4.8,35.01 1,41 1.764,8.93 -0.8,32.07 -2,41 v 156 c 1.9,19.21 4.4,74.51 0,91 -1.272,4.77 1.4,9.01 2,11 3.158,10.41 0.262,29.21 -2,39 q 1,10.995 2,22 c -5.826,24.96 1.672,57.68 -2,82 -1.948,12.9 -0.541,45.52 2,56 q -1,18.495 -2,37 c -2.522,29.74 3.837,82.23 0,110 q 1,20.505 2,41 c -11.455,54.76 7.534,132.01 -2,183 -1.453,7.77 -0.179,24.02 2,32 q -1,12.495 -2,25 1,39.99 2,80 c -2.872,18.04 -5.66,73.24 0,94 q -1,47.49 -2,95 c 5.688,27.68 3.31,103.83 0,133 -1.462,12.89 2.371,23.17 2,37 -0.277,10.32 -3.077,27.67 -2,40 q 1,25.5 2,51 -1,314.475 -2,629 c -2.356,20.41 0.3,44.95 1,64 q -0.5,67.5 -1,135 c 0,0 2.707,45.17 0,54 -5.1,16.66 6.517,55.63 0,71 -0.67,1.58 -1.172,71.14 0,83 q 1,9 2,18 c -3.372,11.69 -3.456,39.89 0,54 q -1,22.995 -2,46 c -4.634,24.59 4.818,66.91 2,98 -3.23,35.64 -5.133,95.72 1,145 3.093,24.85 -1.819,43.45 0,68 1.731,23.37 -1.337,50.07 -3,70 -0.667,8 4.077,23.67 2,35 -3.01,16.41 -2.486,59.09 1,77 0.947,4.86 -1.132,35.43 -3,42 q 2,14.505 4,29 c 0.659,0.72 -4.2,70.83 -4,77 -0.237,0.26 2.781,31.71 2,40 -3.292,34.97 3.007,81.94 2,123 -1.472,60.03 5.2,137.19 -3,187 l 3,3 c 2.2,7.28 0.321,35.15 -1,39 v 84 h 39 c 26.052,0.13 51.933,2.64 77,-2 q 21,1.005 42,2 44.5,-1.005 89,-2 c 8.585,0.12 25.509,2.61 31,2 19.521,-2.16 61.267,-4.49 82,-1 h 115 c 8.357,1.2 25.744,0.42 28,-2 12.475,7.35 54.608,2 77,2 7.56,0 19.562,-2.57 24,-2 33.4,4.29 69.451,1.01 104,2 11.335,0.33 29.9,-1.18 35,0 6.136,1.42 23.327,1.11 26,-2 2.13,-0.45 10.826,2.2 16,2 25.148,-0.99 59.95,5.46 93,0 23.49,-3.88 55.21,-2.51 82,1 16.02,2.1 37.09,-1.88 56,0 13.83,1.38 81.17,1.72 95,-3 1.76,-0.6 17.48,2.01 23,2 q 49.995,-0.495 100,-1 22.995,0.495 46,1 c 60.15,0 124.89,5.72 176,-2 3.63,-0.55 14.34,2 21,2 h 220 c 37.97,-3.79 100.79,3.09 150,0 h 155 c 48.5,0 90.64,-1.29 137,0 q 34.995,0.495 70,1 c 11.2,1.89 96.32,1.62 104,-3 11.87,4.55 90.66,5.46 103,0 14.09,4.28 31.81,-0.02 50,1 h 135 c 19.11,-1.8 101.51,7.5 115,-1 11.74,5.69 45.3,2.51 67,1 h 142 c 89.21,3.18 209.43,2.45 290,-2 74.94,-4.14 157.94,9.37 236,4 47.86,-3.29 95.7,7.01 148,0 h 428 c 22.03,-2.36 50.56,0 75,0 q 131.49,0.495 263,1 431.955,-1.005 864,-2 118.485,1.005 237,2 h 110 c 20.32,-2.97 54.39,-3.29 85,0 h 89 c 25,3.92 52.07,-2.79 79,-2 0,0 8.94,2.23 11,2 4.92,-0.56 19.92,-1.53 24,0 10.53,3.96 43.91,-1.27 52,-2 q 37.995,1.005 76,2 h 99 q 54.99,-0.495 110,-1 c 8.78,-1.05 21.83,3.7 25,-1 q 9.495,1.005 19,2 c 29.37,-0.37 53.46,1.6 84,0 33.94,-1.78 90.05,-1.75 121,0 h 79 q 129.99,-0.495 260,-1 48.495,0.495 97,1 12,-1.005 24,-2 292.47,0.495 585,1 c 30.4,2.92 106.81,2.06 134,-3 7.85,-1.46 34.43,2 49,2 45.72,-0.01 90.97,-2.6 138,1 89.3,6.83 179.68,-10.24 276,0 q 19.995,-0.495 40,-1 c 57.43,-0.08 115.35,-6.34 163,1 q 25.995,-1.005 52,-2 102.495,1.005 205,2 32.49,-1.005 65,-2 137.49,1.005 275,2 26.49,-1.005 53,-2 154.98,1.005 310,2 296.475,-0.495 593,-1 c -2.9,-9.23 -3.2,-27.54 0,-33 -9,-22.28 -1,-89.98 0,-117 0.8,-22.67 2.6,-115.57 -5,-133 0.3,-4.33 0.7,-8.67 1,-13 -0.5,-19.41 1.5,-30.18 -1,-46 q 1.05,-82.995 2,-166 c -1.7,-10.93 2.6,-29.2 0,-45 -5.5,-33.69 -4.4,-83.87 0,-112 q -1.05,-77.49 -2,-155 c 2.5,-25 4.9,-58.39 2,-84 -6.4,-56.87 4.8,-133.42 -2,-195 0.7,-19.33 1.3,-38.67 2,-58 -5.7,-30.48 5.1,-52.58 0,-88 -2.4,-16.84 -3.6,-50.69 -2,-70 2,-24.74 5.1,-61.29 2,-84 -1.3,-9.36 -5.3,-50.27 2,-68 -11.2,-42.94 2.4,-85.92 -4,-132 0.7,-12.67 1.3,-25.33 2,-38 -5.3,-19.23 3.9,-62.62 0,-88 -2.9,-18.7 -2,-63.33 1,-86 1.3,-10.22 0.3,-51.14 -3,-64 1.3,-8 2.7,-16 4,-24 2.2,-22.42 -1.5,-76.87 -4,-101 0,0 2.5,-22.77 2,-27 -3,-24.11 -3.8,-50.41 0,-72 1.6,-9.44 1.1,-31.25 -2,-40 3.7,-14.49 4.6,-109.29 0,-120 0.7,-7.33 1.3,-14.67 2,-22 v -118 q -1.05,-533.94 -2,-1068 v -219 c 0.7,-16.33 1.3,-32.67 2,-49 -1.9,-8.94 -6.5,-29.98 0,-40 -7.2,-11.15 1.2,-36.08 -1,-57 -2.6,-25.16 1.4,-69.44 -2,-108 l 3,-90 c -9.5,-48.02 7.6,-119.25 -1,-188 -4,-31.65 -1.1,-83.76 0,-133 q -0.45,-60.495 -1,-121 c 0.3,-25.33 0.7,-50.67 1,-76 -1.6,-14.9 -3.6,-44.77 -2,-60 5.6,-52.21 6.2,-132.23 2,-198 v -187 c 3,-22.08 -4.4,-79.68 0,-84 4.8,-22.19 0.2,-56.97 -3,-68 -5.5,-18.83 -1.8,-67.16 0,-83 2.7,-23.65 2.3,-76.64 -3,-94 l 3,-33 c -2.3,-12.11 -2.5,-41.63 0,-57 1.9,-11.64 -1.7,-31.646 0,-38 5.2,-19.356 -2.8,-36.881 0,-52 -0.3,-21.664 -0.7,-43.336 -1,-65 -1.5,-58.574 -4.9,-126.547 1,-170 1.3,-9.888 -1.6,-34.012 0,-44 q -0.45,-235.476 -1,-471 l -1285,1 c -20.78,5.026 -36.47,-3.822 -54,-2 -35.91,3.734 -67.17,-2.177 -105,2 -11.92,1.316 -24.48,-2.906 -39,0 -17.87,3.575 -35.14,-3.218 -51,0 l -12,-2 c -19.02,1.293 -38.65,-1.937 -52,2 -4.23,1.248 -73.75,-4.741 -78,1 l -28,-3 c -7.03,-0.791 -18.07,1.539 -23,2 l -81,-2 c -5.08,-0.627 -28.2,-1.545 -34,3 -12.49,-6.2 -57.95,-3.856 -69,-1 l -71,-3 c -19.29,1.966 -46.11,4.2 -70,0 l -68,2 -95,-2 c -11.07,-0.58 -27.6,4.178 -41,2 -28.98,-4.711 -80.71,-4.512 -106,0 l -138,-1 c -21.76,2.177 -53.17,-3.786 -82,-1 -30.95,2.991 -60.49,5.028 -92,0 l -27,2 c -33.15,-5.2 -64.2,1.843 -93,-2 -20.19,-2.695 -82.58,-0.713 -107,3 l -54,-3 c -14.92,-2.622 -37.81,1.108 -47,3 l -47,-3 -64,2 h -117 l -37,-2 c -54.45,5.591 -95.66,-4.861 -147,2 l -59,-2 c -53.03,0.779 -93.46,-0.458 -139,3 l -51,-3 c -38.03,4.886 -83.61,4.06 -114,1 -49.89,-5.023 -112.5,2.226 -158,-1 l -132,3 c -28.13,0.172 -72.07,-4.724 -110,-2 l -34,-2 c -25.98,5.157 -103.82,4.659 -126,1 l -506,-1 -88,2 -218,-2 c -22.41,2.866 -50.93,4.342 -69,3 -53.93,-4 -121.35,-6.256 -169,-1 l -72,-1 c -17.19,3.3 -66.17,4.8 -93,0 l -47,1 c -47.24,-1.5 -117.93,6.308 -155,-1 l -47,2 -168,-2 c -9.07,-1.269 -26.19,3.914 -33,3 -65.33,-8.763 -137.06,5.093 -202,-3 l -57,1 c -69.26,-0.071 -133.6,6.357 -189,-1 -26.41,-3.507 -69.68,7.864 -96,0 -13.84,-4.135 -56.11,3.123 -76,0 l -141,2 -139,-1 c -50.95,-5.341 -111.59,5 -153,0 -41.13,-4.971 -76.29,7.23 -112,0 l -24,2 c -19.72,-1.211 -45.99,-1.52 -70,-1 -11.66,0.253 -41.38,3.585 -61,-1 -9.26,-2.165 -20.89,3.222 -33,0 -15.56,-4.139 -33.3,2.66 -52,0 -31.77,-4.52 -77.89,2.566 -110,0 -20.33,-1.624 -73.54,-1.248 -81,3 0,0 -38.38,-3.165 -44,-3 -12.64,0.371 -34.75,2.053 -44,0 l -35,2 -30,-2 c -14.14,-1.245 -40.08,3.2 -54,2 -61.05,-5.245 -149.44,-0.2 -213,-2 l -70,2 c -43.55,-5.171 -94.94,1.116 -141,-2 l -49,2 c -32.45,-7.731 -89.78,-1.856 -128,0 -44.46,2.16 -95.4,-7.979 -140,1 0,0 -35.33,-1.787 -44,-3 -18.68,-2.612 -45.21,1.5 -73,0 l -29,1 c -14.45,-3.965 -77.15,-6.685 -99,-4 l -359,1 c -33.33,-4.883 -127.967,4.724 -134,-2 0,0 -26.774,2.426 -29,2 -28.385,-5.429 -69.093,0.252 -107,0 l -32,1 c -13.27,-4.9 -38.41,4.745 -56,0 -15.038,-4.057 -35.747,1.625 -58,-1 -47.691,-5.625 -122.633,4.812 -160,0 -28.082,-3.616 -84.193,7.038 -96,-2 z m -20,2147 c 0.333,0.67 0.667,1.33 1,2 -0.333,-0.67 -0.667,-1.33 -1,-2 z m -1,2890 z" />
  <path
     id="bordure_3"
     class="cls-1"
     d="m 177,6436 v -79 c 3.583,-77.9 -7.785,-173.61 -1,-268 q -1,-66.495 -2,-133 a 369.572,369.572 0 0 0 0,-96 q 1,-23.505 2,-47 c -5.132,-33.83 -2.36,-77.46 -3,-112 -3.549,-191.38 6.069,-412.63 0,-577 -0.928,-25.13 0.954,-57.05 2,-82 q -1,-88.995 -2,-178 c 2.222,-19.94 -1.27,-62.12 0,-81 2.585,-38.43 1.778,-86.15 -1,-120 q 1.5,-19.995 3,-40 -0.5,-135.48 -1,-271 c -4.539,-31.79 5.155,-62.94 -1,-92 q 1,-7.5 2,-15 c -1.217,-17.15 1.252,-55.21 -2,-73 q 1,-12 2,-24 -0.5,-33.495 -1,-67 0.5,-19.005 1,-38 c -4.912,-18.88 -2.447,-74.55 0,-97 q -1,-26.49 -2,-53 1,-19.005 2,-38 c -3.61,-17.66 -4.153,-77.71 0,-106 q -1,-12 -2,-24 c 2.058,-12.18 5.175,-31.32 2,-46 -5,-23.11 -1.513,-58.84 0,-89 q -1,-48.495 -2,-97 c 2.87,-12.55 3.917,-35.69 0,-51 -1.384,-5.41 0.682,-15.35 2,-21 3.381,-14.49 -0.85,-53.38 -2,-67 -0.649,-7.69 2.053,-23.46 2,-32 -0.1,-15.5 -2.729,-32.16 -2,-47 0.247,-5.04 3.616,-14.12 2,-22 -7.51,-36.61 2.536,-93.92 -2,-133 q 1,-15 2,-30 c -2.091,-10.67 -4.129,-76.17 0,-92 q -1,-34.995 -2,-70 c 4.14,-32.95 -2.99,-81.33 0,-126 q 1,-45.99 2,-92 c -3.265,-39.54 -3.84,-87.14 0,-125 3.869,-38.15 -3.758,-67.19 -1,-98 v -85 c 0.233,-2.97 -4.083,-10 -2,-15 7.334,-17.61 5.6,-105.86 3,-132 -9.561,-96.28 4.017,-202.21 -1,-315 q -0.5,-56.49 -1,-113 1,-16.005 2,-32 c -4.849,-36.28 1.222,-64.56 -1,-99 -2.416,-37.45 -3.144,-75.11 0,-112 q -1,-34.995 -2,-70 c 0.166,-20.88 3.947,-57.46 0,-76 q 0.5,-419.955 1,-840 V 308 q 0.5,-62.994 1,-126 c 14.353,-8.665 36.4,3.261 54,0 50.012,-9.269 108.994,2.057 174,-1 l 202,1 128,-2 119,2 466,-2 c 17.65,8.019 49.36,3.642 71,3 49.9,-1.48 111.22,2.143 164,1 h 380 c 32.92,-4.45 80.6,-2.791 110,2 13.68,2.229 36.74,-4.3 54,-2 h 200 c 34.57,-5.142 85.22,-0.737 119,2 13.01,1.054 41.22,-2 62,-2 h 92 l 107,2 c 19.5,-2.222 41.38,-3.589 62,-2 l 15,2 c 16.58,-3.219 38.83,-0.713 56,-1 38.05,-0.636 74.45,0.188 111,1 62.89,1.4 116.26,-8.326 178,-1 l 53,-2 h 94 c 30.35,1.469 78.71,2.04 111,-1 12.55,-1.182 34.05,1.437 47,2 l 180,-2 17,3 c 29.64,0.9 59.83,-2.74 84,-1 l 82,-2 66,2 c 23.36,-3.632 51.2,1.326 77,0 29.94,-1.539 73.41,-3.383 105,1 4.01,0.557 29.97,-2.138 37,-3 l 100,2 c 21.18,-3.139 69.42,-5.444 93,-2 43.38,6.335 100.45,-4.219 147,0 l 120,2 219,-2 c 19.38,-0.61 54.88,4.824 71,2 43.42,-7.606 99.41,-1.986 145,-2 l 39,1 h 111 c 57.64,-1.209 123.99,-3.734 178,0 l 138,-2 c 37.45,5.071 106.31,4.79 139,0 l 153,2 h 74 c 25.19,3.678 47.53,-2.712 73,0 l 62,-2 61,4 c 16.7,-3.192 46,-3.872 64,-1 l 63,-1 c 13.62,2.444 35.95,2.555 52,0 l 48,1 c 36.32,0.352 61.52,-3.74 93,1 l 63,-3 48,3 45,-3 q 5.505,2 11,4 c 38.42,-0.225 87.85,-8.837 132,-2 26.74,4.141 56.56,-3.64 84,1 l 79,-3 c 91.49,6.4 168.96,-4.1 257,3 14.73,1.188 30.72,-5.056 47,-3 45.83,5.79 108.04,3.273 159,0 10.22,-0.656 29.81,1.082 38,2 l 35,-2 c 38.81,4.894 72.34,2.92 108,3 35.09,0.079 82.44,-4.76 113,-1 l 413,-2 c 45.52,4.277 93.12,-5.729 138,0 44.48,5.677 115.75,6.769 160,2 l 1052,2 110,-2 434,1 h 196 q 0.45,233.477 1,467 c 1.6,46.973 -1,93.877 -1,142 0.3,22.331 0.7,44.669 1,67 2.9,19.669 -2.5,46.815 0,67 3.6,29.466 -3,58.476 0,92 4.5,50.9 -5.4,84.06 0,124 q -0.45,66 -1,132 c 11,70.45 5.8,160.53 3,239 q 0.45,120.495 1,241 -0.45,103.995 -1,208 c 0.3,27.66 0.7,55.34 1,83 -6.6,23.54 4.3,58.64 0,95 -4.5,38.47 3.4,73.89 0,120 -3.4,46.62 -3.7,104.65 1,145 3,25.68 0.8,60.88 -3,84 -2.3,13.83 1.4,53.24 2,66 2.6,52.38 -2.1,99.91 1,151 1.9,30.7 -7.4,73.26 -1,98 q -0.45,107.49 -1,215 1.05,302.475 2,605 c 2.1,16.4 0.5,45.99 -3,60 -3.5,14.01 7.9,26.52 4,44 -4.6,20.7 -5.1,77.05 -1,103 -0.3,11.67 -0.7,23.33 -1,35 2.9,26.4 0.3,67.28 -1,95 -1,21.48 0.5,57.7 2,77 3.7,46.02 -0.6,92.17 -2,135 -1.2,39.22 1.2,85.31 0,123 -1.8,54.83 8.4,127.2 1,186 0.7,18.33 1.3,36.67 2,55 -3.5,29.8 -1,65.12 -2,96 0.3,14.33 0.7,28.67 1,43 -7.4,30.34 7.2,65.34 0,104 -2.3,12.13 -1.4,46.4 0,61 4.6,48.56 -2.2,80.15 1,126 1.2,16.71 -1.5,35.2 -3,52 -2.2,24.52 2.9,66.54 0,100 -2.4,27.52 6.9,61.75 2,90 -3.8,21.93 -4.1,49.11 0,69 -0.3,9.33 -0.7,18.67 -1,28 0.4,22.65 0,49.55 -1,76 -1.9,53 7.7,107.35 2,155 -4,33.51 -4.7,75.25 0,108 -0.7,17.66 -1.3,35.34 -2,53 -0.7,8.88 2.5,20.01 2,30 -1.3,24.54 -2.3,53.86 0,74 q -1.05,75.495 -2,151 c 3.9,26.78 -2.4,66.62 0,98 4.3,55.24 2.8,102.27 5,169 1.7,49.84 -2,92.78 -2,154 0.3,19.66 0.7,39.34 1,59 h -82 c -0.64,1.21 -45.64,-0.89 -55,0 -38.28,3.66 -94.29,0.43 -150,0 -126.31,-0.98 -255.8,0 -389,0 -58.58,0 -114.59,3.92 -166,0 -41.13,-3.14 -107.17,-4.63 -143,2 q -9.495,-1.005 -19,-2 h -94 c -24.54,4.31 -75.59,1.68 -103,-1 -28.56,-2.79 -82.46,3.34 -115,1 q -48.99,-0.495 -98,-1 c -3,0.54 -46.96,3.98 -50,3 -16.74,-5.37 -40.7,0.01 -63,-2 -42.33,-3.81 -103.82,-3.26 -151,1 q -196.485,-1.005 -393,-2 -365.46,1.005 -731,2 c -17.54,3.06 -55.15,-2.28 -78,0 -30.14,3 -80.22,4.19 -119,0 -22.83,-2.47 -38.74,3.23 -59,0 q -156.48,1.005 -313,2 -130.485,-1.005 -261,-2 c -19.19,-2.43 -46.87,5.59 -64,2 -5.55,-1.16 -49.81,-5.18 -58,0 -44.15,-10.35 -91.6,6.39 -142,-1 q -252.975,-0.495 -506,-1 -925.905,0.495 -1852,1 -40.5,-1.005 -81,-2 -9,1.005 -18,2 c -22.28,-4.13 -45.57,0.74 -75,-1 -61.95,-3.67 -125.14,1.71 -189,-1 q -323.97,-0.495 -648,-1 -76.995,1.005 -154,2 -503.955,-0.495 -1008,-1 -170.49,0.495 -341,1 c -30.51,2.32 -89.78,-9.88 -116,1 -30.87,-5.42 -62.83,-2.1 -96,-2 q -48.99,-0.495 -98,-1 h -66 q -30,0.495 -60,1 -211.479,0.495 -423,1 z M 275,204 c -12.847,5.219 -59.619,2.976 -75,1 -8.34,10.752 -1.373,65.5 -2,89 q -0.5,145.986 -1,292 0.5,484.452 1,969 v 2049 c 7.173,68.08 -8.719,135.5 0,207 v 450 q 0.5,1076.385 1,2153 360.464,-0.495 721,-1 h 220 c 21.61,1.67 52.55,-3.89 65,1 1.71,0.67 13.53,-1.97 18,-2 h 93 q 118.485,0.495 237,1 c 27.9,3 53.74,-2.35 76,1 8.72,1.31 22.02,-1.9 31,-2 28.78,-0.32 81.28,-5.52 100,2 3.82,1.54 36.93,-3.39 47,-2 q 235.47,0.495 471,1 118.485,-0.495 237,-1 c 12.26,2.16 114.8,2.5 118,-1 0,0 17.33,4.01 22,3 24.61,-5.31 45.78,1.55 74,-1 q 160.485,1.005 321,2 95.49,-1.005 191,-2 318.465,-0.495 637,-1 h 1613 c 29.93,-4.33 54.38,-2.28 75,-1 v 2 c 0.33,-0.67 0.67,-1.33 1,-2 q 45.495,1.005 91,2 141.48,-1.005 283,-2 870.42,-0.495 1741,-1 h 1741 q 84.99,1.005 170,2 143.985,-1.005 288,-2 c 17.59,-0.88 107.23,6.98 117,-3 v -509 c -0.42,-332.19 0,-658.73 0,-1003 v -275 c 4.4,-33.26 -3.73,-76.02 0,-112 2.5,-23.82 2.6,-66.12 -2,-86 q 1.005,-19.995 2,-40 c 3.4,-40.8 -3.85,-85 0,-115 3.2,-25.22 -4.69,-40.65 -2,-66 3.35,-31.61 3.64,-75.11 2,-112 -0.7,-15.74 -3.62,-40.06 0,-51 v -968 q -0.495,-55.5 -1,-111 1.005,-65.49 2,-131 -0.495,-103.995 -1,-208 -0.495,-153.99 -1,-308 c -3.05,-74.12 4.4,-136.13 -4,-205 q 1.005,-24.99 2,-50 -1.005,-83.49 -2,-167 1.005,-23.505 2,-47 -1.005,-176.475 -2,-353 c 2.16,-30.7 1.53,-68.51 0,-102 -1.22,-26.64 3.73,-39.58 0,-62 q 0.495,-16.005 1,-32 c -0.88,-21.49 -1.64,-42.29 1,-67 q -1.005,-33 -2,-66 c -1.57,-50.68 2.05,-105.48 0,-157 -1.35,-33.9 9,-84.432 -1,-114 q 0.495,-187.982 1,-376 -0.495,-108.489 -1,-217 c -1.06,-31.447 6.52,-68.92 -1,-92 l -663,2 -343,-1 h -317 l -528,-1 c -24.42,5.831 -74.21,5.161 -105,3 H 5971 l -1633,-1 h -931 l -1698,-1 -186,1 h -156 c -132.34,0.03 -265.39,4 -374,0 l -123,2 -104,-2 c -23.32,0.772 -65.1,2.965 -90,-1 l -324,-1 z m -58,10 c 6.874,-0.059 10.063,1.655 15,3 5,9.558 3.9,12.525 1,23 -4.938,3.2 -7,5.072 -16,5 -5.683,-5.31 -10.636,-7 -11,-18 1.336,-1.725 0.719,-3.794 2,-6 1.752,-3.019 6.5,-4.591 9,-7 z m 9749,0 10,1 c 3.74,5.525 7.61,7.5 8,17 -3.22,4.218 -3.39,9.034 -9,11 -2.4,2.2 -6.13,2.141 -11,2 -8.65,-8.02 -10.41,-8.389 -9,-24 a 51.263,51.263 0 0 0 7,-6 c 2.33,-0.195 2.83,-0.193 4,-1 z m 3,6158 c 10.01,-0.5 17.29,1.17 18,10 2.36,3.45 1.25,6.19 1,11 -9.97,8.09 -10.27,10.01 -25,6 -3.05,-4.45 -8.59,-11.71 -4,-18 1.93,-5.61 6.15,-5.55 10,-9 z m -9751,2 c 7.071,-0.09 9.158,1.63 14,3 1.317,4.32 3.4,5.65 4,11 2,3 0.019,5.55 -1,8 -3.822,9.2 -12.071,9.69 -22,7 -6.542,-9.85 -6.44,-11.55 -3,-24 a 26.786,26.786 0 0 0 8,-5 z" />
  <path
     id="bordure_4"
     class="cls-2"
     d="m 276,204 c 11.012,2.064 26.327,1 39,1 h 75 c 58.015,0.134 122.6,2 183,2 h 115 v 2 c 3.241,1.3 3.98,-1.7 5,-2 1.112,-0.33 46.143,-1.265 50,0 5.769,1.891 33.938,1.516 46,0 a 86.76,86.76 0 0 1 14,1 l 16,-1 c 12.116,2.1 40.759,3 51,2 21.607,-2.1 47.711,-1 71,-1 h 35 c 11.632,2.537 28.84,1.31 40,0 7.59,-0.891 19.18,1.331 26,-1 8.48,4.193 32.95,2 52,2 16.66,0 46.96,3.54 59,-2 h 12 c 12.41,-0.009 27.23,0.545 38,-1 3.47,-0.5 12.73,1 18,1 h 64 c 22.73,-0.933 53.96,0 80,0 14.14,0 28.61,-1.753 39,0 h 91 c 8.31,0 22.02,-0.838 27,0 h 201 c 16.47,0 34.34,-0.045 48,0 4.83,0.016 10.52,-1.5 14,-1 30.49,4.392 67.63,1 100,1 32.37,0 69.52,3.406 100,-1 3.47,-0.5 12.74,1 18,1 24.32,0 48.93,2.607 75,0 21.55,-2.155 53.01,0 78,0 50.06,0 102.99,0.569 152,-1 8.52,-0.273 21.78,1 32,1 h 460 c 25.4,0 53.24,-0.236 77,-1 34.69,-1.116 74.74,4.631 111,1 l 206,-1 h 81 c 7.62,-1.154 24.05,0 35,0 34.56,0 73.67,1.936 105,0 8.68,-0.537 21.67,2.571 32,1 8.14,-1.238 22.04,0 35,0 h 87 c 79.63,0 162.05,-1.526 240,1 35.11,1.138 75.16,-1 112,-1 h 370 c 14.8,0 32.94,-1.462 46,1 l 8,-1 c 9.37,-0.191 18.95,-0.256 25,1 14.39,2.987 28.46,-2.732 41,-1 26.47,3.657 69.9,-2.629 103,1 11.61,1.272 24.18,-1.708 33,0 16.58,3.21 32.32,-2.955 46,-1 13.87,1.982 36.14,2.235 50,0 2.09,-0.337 9.11,0.693 13,1 15.95,1.256 34.67,-0.539 49,-1 8.84,-0.285 30.44,-0.171 42,1 20.96,2.122 48.73,1.809 68,-1 3.37,-0.492 9.37,1 16,1 h 138 c 13.95,0 30.73,-1.01 43,1 7.63,1.251 21.54,-1 31,-1 24.48,0.01 58.93,-1.486 75,1 8.22,1.272 14.82,-1.823 23,0 l 11,-1 c 13.83,-0.757 22.85,0.7 35,0 9.05,-0.519 23.47,1.724 34,1 11.26,-0.774 30.46,-1.6 40,0 4.69,0.786 9.74,-1.083 13,-1 9.89,0.252 24.04,2.631 35,1 5.93,-0.882 14.28,-1.256 20,0 3.35,0.737 7.07,-0.722 9,-1 3.78,-0.546 6.38,0.907 9,1 6.12,0.218 15.83,-1.262 22,0 l 14,-1 c 10.35,1.825 22.76,0.412 36,1 l 11,-1 c 26.6,4.718 74.59,1 107,1 22.21,0 51.85,-3.118 68,0 18.56,3.584 42.83,-2.235 56,0 15.62,2.651 37.59,-2.109 50,0 26.37,4.482 48.09,-3.455 68,0 h 28 c 20.93,0 42.81,-0.014 61,0 9.19,0.007 20.71,-0.848 27,0 9.44,1.273 18.09,-2.031 27,0 17.3,3.942 43.7,-1.845 60,-1 13.25,0.686 27.32,1.457 41,1 5.55,-0.185 13.26,-1.282 19,0 11.5,2.565 24.98,-2.753 37,0 14.57,3.338 31.2,-2 43,0 17.7,3.006 37.74,-2.563 55,-1 14.01,1.268 33.21,2.5 49,0 6.27,-0.991 14.94,1.569 22,0 16.07,-3.569 33.89,2.7 46,0 11.14,-2.487 20.59,2.354 30,1 27.92,-4.018 64.82,4.712 90,-1 l 38,1 c 6.55,-1.194 21.51,-1.964 30,-1 1.92,0.218 5.64,1.718 9,1 9,-1.92 15.89,1.913 25,0 4.48,-0.942 11.51,0.779 16,0 17.99,-3.121 35.74,-0.474 53,-1 17.01,-0.519 33.4,-0.072 48,0 l 13,1 c 8.73,-1.773 20.12,1.538 29,0 7.71,-1.336 22.05,0.8 31,0 12.63,-1.126 29.81,-1.128 38,0 l 12,-1 c 20.29,-0.076 45.6,-2.758 64,1 6.95,1.42 16.54,-2.547 25,-1 9.89,1.807 24.77,0.569 36,0 18.61,-0.943 40.41,1.3 56,1 8.32,-0.161 21.63,-1.71 30,0 2.75,0.561 4.52,-0.785 6,-1 7.4,-1.072 21.53,-0.1 27,1 l 12,-1 h 62 c 14.5,2.829 43.55,-0.074 62,0 25.96,0.1 63.04,-3.7 88,1 6.81,1.283 18.85,-1.6 26,0 l 14,-1 c 16.29,-0.19 36.04,-1.4 49,1 l 11,-1 h 709 c 5.5,1.126 19.81,1.6 27,1 1.57,-0.131 4.06,-1.556 7,-1 2.96,0.561 11.13,1.573 15,1 7.43,-1.1 22.56,-4.708 31,-3 9.3,1.882 16.67,1.252 26,0 2.39,-0.321 5.35,1.774 9,1 2.61,-0.552 8.83,-1.853 13,-1 8.38,1.717 23.71,-2.207 35,0 7.9,1.543 17.6,-0.151 28,0 18.02,0.261 45.84,0.252 64,1 25.79,1.062 59.66,-4.557 82,0 l 13,-1 h 63 c 9.14,1.641 25.43,0.267 36,0 30.12,-0.76 56.81,0.118 85,1 20.37,0.638 48.7,-4.143 69,0 l 8,-1 c 12.79,-0.674 29.78,-2.3 41,0 9.29,1.9 29.8,1.847 38,0 4.12,-0.928 10.44,0.507 13,1 4.56,0.877 16.9,-0.032 22,-1 l 10,1 c 10.32,-1.9 23.83,2.983 38,0 5.51,-1.161 15.75,-1.427 22,0 8.37,1.912 19.21,-1.913 26,-1 10.22,1.375 28.36,1.808 41,0 11.13,-1.592 23.86,1.69 37,1 5.83,-0.306 13.74,-1.722 21,-1 8.33,0.829 27.25,-0.884 36,0 23.54,2.377 51.76,1 77,1 h 137 c 193.22,0 387.89,-0.913 577,-1 49.16,-0.023 103.8,0 153,0 11.64,0 54.07,-2.038 57,0 4.01,4.706 2,19.821 2,28 v 76 c -0.01,64.956 1,121.968 1,183 v 69 q -0.495,14 -1,28 c 3.29,17.357 -4.48,46.025 0,68 2.08,10.211 -2.25,28.648 0,42 1.09,6.471 0,22.151 0,32 v 159 c 2.9,6.071 1.26,18.329 2,26 0.12,1.232 -1.9,4.314 -1,7 2.97,8.882 -1.75,16.807 0,29 2.65,18.428 -1.64,42.677 1,63 0.66,5.06 -2.89,13.98 -1,20 0.67,0.33 1.33,0.67 2,1 2.09,7.77 -4.44,14.83 -2,26 1.08,4.96 -1.51,11.99 0,19 2.84,13.21 -0.06,32.41 1,45 0.41,4.82 -2.06,11.73 -1,18 1.87,11.06 -1.11,18.77 0,33 0.23,2.89 1.4,8.46 1,12 -0.69,6.15 -2.33,17.27 -1,25 1.33,7.73 -2,19.24 0,31 1.43,8.42 0.55,28.2 0,39 -1.96,38.52 -1.19,80.64 1,103 1.48,15.12 -5.11,57.48 0,67 -0.99,8.87 0.86,19.74 0,27 -1.17,9.93 -2.97,26.52 -1,38 2.89,16.85 -3.93,33.22 0,56 0.94,5.47 -2.12,19.55 0,32 2.19,12.91 -3.28,33.18 0,52 1.81,10.4 1.3,39.19 0,48 -0.85,5.78 0.56,13.83 1,18 0.78,7.36 -1.14,16.43 -1,24 0.27,14.05 2.62,32.93 0,44 -2.18,9.22 1.69,17.56 1,24 -2.59,24.26 2.3,51.13 -1,71 q 1.005,6.495 2,13 c -0.67,0.33 -1.33,0.67 -2,1 -1.43,4.37 1.34,10.03 1,13 -0.4,3.51 -1.99,21.8 -1,24 0.52,1.15 2.44,-0.79 2,2 -0.72,4.6 -3.81,13.77 -2,22 0.69,3.16 -1.07,7.16 0,11 0.31,1.09 2.47,0.38 2,3 -0.67,0.33 -1.33,0.67 -2,1 -0.62,2.02 -0.15,10.24 0,11 0.12,0.59 2.09,5.24 2,6 -1.04,8.38 -2.97,15.65 0,24 2.24,6.3 -2.75,12.12 -2,16 2.23,11.52 3.08,26.36 0,36 -1.18,3.69 1.62,5.42 2,7 1,4.11 -1.06,9.28 -2,12 -1.07,3.09 0.77,7.3 1,9 0.91,6.75 -0.78,14.4 -1,18 -0.24,4.05 3.41,4.75 2,10 l -2,2 c -1.55,6.11 4.21,7.51 5,12 0.41,2.31 -2.07,5.44 -1,9 0.21,0.7 2.24,0.43 2,2 -2.86,18.29 -2,48.63 -2,73 0,41.02 -0.01,85.03 0,123 0.01,15.36 1.52,31.6 0,42 -1.66,11.33 2.83,29.33 1,38 -3.94,18.65 -1,44.43 -1,65 v 84 c 0,11.51 1.16,28.87 0,37 -3.02,21.21 3.1,42.89 1,61 -4.27,37.7 -1,81.47 -1,121 v 30 c 0.63,2.1 2.95,4.53 2,9 -3.81,18.02 -2,44.65 -2,66 v 28 c 1.55,6.19 -1.91,15.8 0,26 2.6,13.89 0,37.79 0,63 v 330 q 0.495,6.495 1,13 c -4,25.56 -1,57.58 -1,85 0,24.44 -2.78,53.41 1,76 1.32,7.89 -1,22.26 -1,32 v 119 c 0.67,0.33 1.33,0.67 2,1 0.52,2.61 -1.66,1.9 -2,3 v 35 c 1.09,6.47 0,22.15 0,32 0,25.99 -3.06,59.24 2,81 0.59,2.52 -1.56,7.17 -2,9 -1.27,5.31 1.49,10.44 2,13 0.64,3.19 -1.57,2.72 -2,4 v 182 c -0.33,3.33 -0.67,6.67 -1,10 2.28,12.06 1.06,33.46 1,50 q -0.495,6.495 -1,13 c 1.82,9.05 -1.64,19.2 0,27 0.33,1.57 1.7,5.87 1,9 -0.57,2.56 -1.91,8.89 -1,13 1.72,7.75 0.27,18.13 0,27 -0.56,18.02 3.98,36.53 1,57 -1.05,7.22 -1.82,23.87 -1,32 1.36,13.48 -1.23,30.25 0,44 a 418.019,418.019 0 0 1 1,45 c -0.2,7.26 -1.41,22.33 0,29 q -0.495,16.5 -1,33 c 2.02,8.91 1,22.4 1,33 v 64 c 0,19.8 3.1,45.15 -1,63 q 0.495,7.5 1,15 c 0.34,19.31 0,33.23 0,53 v 157 c 0,538.38 -0.3,1088.97 0,1601 h -2 c -5.94,3.87 -28.79,1 -40,1 h -343 c -6.01,0 -14.62,1.42 -19,1 -25.74,-2.46 -62.43,-0.7 -85,0 -2.65,0.08 -12.32,-1.41 -15,-2 -2.62,-0.58 -5.94,0.8 -7,1 -4.53,0.84 -16.59,-0.13 -21,0 -2.08,0.06 -8.2,-1.75 -12,-1 -7.85,1.55 -15.92,0.2 -26,0 -20.19,-0.4 -34.81,0.51 -51,1 -6.84,0.21 -13.16,-2.6 -22,-1 -10.21,1.84 -24.16,-0.33 -33,0 -3.67,0.33 -7.33,0.67 -11,1 -2.53,-0.53 -7.91,-1.47 -12,-1 -13.03,1.51 -29.6,0.46 -48,1 -7.21,0.21 -19.14,-2.5 -28,-1 -21.35,3.61 -60.84,-4.17 -92,1 -7.47,1.24 -14.79,-1.84 -23,-1 -22.14,2.27 -53.24,-2.6 -78,1 -6.73,0.98 -21.13,-1.34 -28,0 -16.74,3.26 -37.49,-1.54 -53,1 -3,-0.33 -6,-0.67 -9,-1 -15.08,-0.15 -37.42,-2.24 -49,0 h -20 c -21.09,0 -50.12,-2.58 -65,0 h -23 c -21.71,0 -44.1,-1.37 -62,1 -5.63,0.75 -16.6,-1.07 -24,-1 -22.76,0.23 -42.52,0.25 -67,1 -10.92,0.33 -27.92,-1.82 -39,0 -7.38,1.21 -27.92,-1 -38,-1 -24.4,0 -51.24,0.29 -74,1 -15.53,0.48 -35.53,-1.93 -49,0 q -6.495,-1.005 -13,-2 c -12.22,2.12 -29.08,1 -43,1 -10.8,0 -23.82,0.71 -33,1 -29.21,0.93 -65.79,-3.87 -95,0 -3.33,-0.33 -6.67,-0.67 -10,-1 h -45 c -34.17,2.19 -76.06,-0.66 -111,0 -20.52,0.39 -41.83,-3.36 -57,0 -14.86,3.29 -29.21,-2.35 -41,0 q -7.005,-0.495 -14,-1 c -18.22,3.81 -38.18,-2.07 -54,1 -8.89,1.72 -23.7,0.5 -31,-1 -3,0.33 -6,0.67 -9,1 -6.18,-0.19 -17.81,-1.88 -26,-1 -9.01,0.97 -25.69,0.24 -37,0 -9.03,-0.19 -20.16,0.98 -26,0 q -13.005,0.495 -26,1 c -9.03,-1.97 -28.54,-1.24 -35,0 -3.71,0.72 -6.43,-0.78 -9,-1 -8.79,-0.76 -25.74,-0.39 -32,1 -9.29,2.06 -25.79,-2.2 -38,-1 -8.79,0.87 -25.84,0.2 -35,0 -9.02,-0.2 -19.77,1.04 -27,0 -10.69,-1.54 -27.93,1.58 -39,0 -2.42,-0.35 -8.85,1.89 -13,1 -13.95,-3.01 -42.53,0.65 -53,-1 -3.67,0.33 -7.33,0.67 -11,1 -15.78,-2.81 -30.73,2.32 -47,-1 -10.19,-2.08 -25.12,3.56 -37,1 -9.76,-2.1 -18.8,1.87 -28,0 -8.19,-1.66 -23.8,-1.77 -32,0 q -13.005,-0.495 -26,-1 c -7.47,1.64 -21.53,1.53 -29,0 -7.15,-1.46 -19.56,1.4 -27,0 q -6.495,0.495 -13,1 h -73 c -19.22,-4.13 -40.24,4.07 -63,0 -8.73,-1.56 -21.18,-0.01 -32,0 -28.95,0.03 -66.68,1.72 -88,-1 -6.22,-0.79 -17.51,1.22 -24,0 -3,0.33 -6,0.67 -9,1 -13.31,0.24 -28.8,0.71 -38,-1 -4.45,-0.83 -12.86,1.86 -17,2 -14.82,0.5 -40.42,0.99 -55,-2 -9.37,-1.92 -24.58,2.73 -38,1 -8.28,-1.07 -28.83,-1.96 -39,0 -11.96,2.31 -49.49,1.15 -60,-1 q -7.5,0.495 -15,1 c -12.39,-2.67 -41.25,-0.53 -56,-1 -9.1,-0.29 -20.87,0.69 -29,1 -10.81,0.41 -19.91,-1.9 -29,0 -9.99,2.08 -27.59,0.8 -36,-1 -5.76,-1.23 -24.55,1.02 -33,1 q -6,-0.495 -12,-1 c -11,1.55 -24.38,-1.28 -36,0 -8.33,0.92 -26.59,1.38 -36,0 -3.67,0.33 -7.33,0.67 -11,1 -12.21,0.14 -21.28,-0.68 -32,-1 -6.83,-0.2 -18.53,2.6 -27,1 -11.08,-2.09 -28.64,0.89 -45,0 -6.43,-0.35 -10.44,-1.92 -17,-1 -3.04,0.43 -8.45,1.46 -13,1 -10.49,-1.05 -28.82,-1.22 -38,0 -3.57,0.48 -5.48,-0.78 -8,-1 a 106.474,106.474 0 0 0 -24,1 c -7.5,1.04 -23.34,-1.11 -30,0 -4.18,0.69 -9.32,-0.6 -12,-1 q -12,0.495 -24,1 c -3.62,-0.65 -27.47,-1.68 -31,-1 -11.79,2.28 -41.49,1.31 -51,0 -5.17,-0.71 -11.54,2.29 -18,1 -20.93,-4.16 -49.01,2.69 -74,-1 -5.35,-0.79 -13.47,1.01 -17,0 -2.67,0.33 -5.33,0.67 -8,1 h -38 c -19.3,-0.35 -38.6,0 -61,0 h -32 c -4.99,1.1 -17.93,2.42 -23,2 -11.99,-0.98 -35.16,-2.67 -47,0 -3.8,0.86 -8.66,-0.64 -11,-1 -10.95,-1.68 -29.65,-0.67 -38,1 -3.26,0.65 -4.64,-0.79 -7,-1 h -36 c -13.3,1.39 -41.66,2.49 -56,0 -6.51,-1.13 -14.17,0.44 -17,1 q -7.005,-0.495 -14,-1 c -10.53,1.16 -26.74,2 -38,0 -7.36,-1.31 -16.06,0.94 -22,1 -13.68,0.14 -29.71,-0.45 -45,-1 -11.02,-0.39 -21.96,1.53 -31,0 -12.3,-2.09 -22.09,2.48 -33,1 -26.02,-3.52 -66.39,2.21 -94,-1 -8.52,-0.99 -19.44,1.63 -27,0 -8.91,-1.92 -21.61,0.78 -29,1 -6.74,0.2 -18.66,-2.84 -27,-1 -2.36,0.52 -8.08,1.78 -12,1 -17.15,-3.43 -42.52,3.2 -62,-1 q -7.5,0.495 -15,1 c -9.04,-1.85 -22.53,-0.32 -29,0 q -10.005,-0.495 -20,-1 c -11.94,0.18 -24.96,1.12 -38,0 -13.24,-1.14 -28.04,2.31 -43,1 -27.3,-2.39 -71.14,1.28 -104,-1 -10.58,-0.74 -26.97,1.37 -35,0 -17.9,-3.06 -41.24,2.92 -58,0 -7.04,-1.23 -16.55,0.85 -22,1 -14.82,0.41 -30.36,-2.1 -46,-1 -8.15,0.57 -21.78,1.68 -30,0 -8.38,-1.71 -14.25,2.29 -22,1 -23.56,-3.93 -53.91,2.4 -74,-1 -11.21,-1.9 -19.29,0.68 -29,1 -15.59,0.52 -40.98,0.84 -54,-1 q -8.505,0.495 -17,1 c -20.16,0 -39.91,1.47 -54,-1 -4.69,-0.82 -10.89,0.91 -14,1 -6.59,0.18 -16.28,-2.03 -24,-1 -1.76,0.23 -4.84,1.64 -8,1 -27.32,-5.53 -73.29,3.35 -102,-1 -8.8,-1.33 -21.7,1.41 -29,0 q -11.505,0.495 -23,1 c -8.31,-1.8 -19.41,-0.05 -28,0 -10.87,0.06 -21.39,-1.81 -33,-1 -6.64,0.47 -17.88,2.64 -26,1 -12.5,-2.52 -35.66,-1.49 -47,0 -6.86,0.9 -18.47,-2.87 -27,-1 -5.22,1.15 -12.7,-1.02 -18,0 -10.46,2.01 -28.63,1.45 -37,0 -6.03,-1.04 -13.45,0.79 -18,1 -8.1,0.38 -25.18,0.42 -33,-1 -2.33,0.33 -4.67,0.67 -7,1 a 126.67,126.67 0 0 1 -25,-1 c -1.31,-0.19 -7.04,1 -10,1 -14.57,0.02 -30.94,1.05 -42,-1 q -7.005,0.495 -14,1 h -52 c -37.95,-0.27 -83.61,0.43 -127,0 -125.57,-1.25 -250.62,0 -371,0 h -119 c -21.91,0 -47.67,2.99 -62,0 -9.97,-2.08 -45.51,-0.95 -54,1 h -39 c -19.6,1.95 -48.96,0 -72,0 -8.34,0 -26.26,2.1 -32,1 -19.5,-3.74 -45.63,-1 -67,-1 h -184 c -14.41,-1.43 -33.53,-0.03 -48,0 -15.35,0.04 -29,-1.75 -44,0 -20.42,2.39 -42.34,-3.56 -62,0 -4.57,0.83 -12.03,-1 -18,-1 h -59 c -61,0 -124.67,-0.89 -184,1 -16.83,0.54 -38.46,-1 -57,-1 h -163 c -32.58,0 -59.79,-0.28 -93,0 -11.02,0.09 -28.61,1.46 -37,0 -14.57,-2.53 -48.67,-0.92 -62,1 -1.1,0.16 -6.29,-0.99 -9,-1 h -41 c -21.53,0.64 -66.32,2.65 -82,0 h -174 c -20.52,0 -44.2,1.49 -63,-1 -2.69,-0.36 -8.79,1 -13,1 -17.43,0.01 -37.21,0.5 -53,1 -43.69,1.38 -86.99,-1 -132,-1 -34.96,0 -74.42,3.31 -104,-1 -1.53,-0.22 -7.79,1 -11,1 -18.02,0.01 -43.52,2.51 -58,0 h -81 c -7.4,0 -19.9,0.69 -24,0 H 836 c -16.267,0 -35.422,-1.11 -50,1 -3.174,0.46 -12.042,-1 -17,-1 H 534 q -92.491,1.005 -185,2 c -34.1,0 -77.937,2.74 -97,-1 -17.242,-3.39 -38.313,1.69 -53,0 -0.926,-13.47 -1.025,-25.25 -1,-39 q 0.5,-6 1,-12 c -1.373,-9.62 -3.128,-26.85 -1,-38 2.268,-11.89 -0.573,-25.26 0,-43 0.41,-12.69 1.541,-31.9 0,-43 -1.468,-10.58 2.234,-23.25 0,-33 -4.406,-19.24 3.235,-45.52 -1,-64 -2.078,-9.07 -0.774,-44.27 1,-52 v -16 c 0,-15.55 -1.271,-34.16 1,-48 0.554,-3.37 -1,-9.26 -1,-14 v -49 c 0,-21.75 0.354,-45.89 1,-66 0.323,-10.05 -4.355,-38.86 -1,-49 0.4,-1.22 2,-0.4 2,-3 0,-2.91 -1.972,-6 -2,-11 -0.1,-18.07 2.427,-43.47 0,-58 -1.254,-7.51 2.825,-23.32 2,-26 -3.306,-10.76 -2,-29.15 0,-36 1.484,-5.09 -1.226,-10.73 -2,-13 -0.489,-1.43 1.845,-1.45 2,-2 v -13 c -0.625,-8.09 -2.267,-16.29 0,-24 1.761,-5.99 -0.2,-15.02 -1,-21 -0.335,-2.5 0.9,-9.73 1,-11 0.924,-11.16 -0.54,-23.34 -2,-31 l 2,-2 c 2.824,-10.49 -2.217,-20.27 -2,-27 0.081,-2.52 1.654,-5.92 2,-7 1.539,-4.82 -1.327,-9.98 -2,-12 -2.305,-6.92 3.64,-8.26 2,-15 -0.388,-1.59 -2.808,-2.52 -2,-6 l 2,-2 c 1.315,-4.64 -1.277,-9.94 -2,-13 -1.4,-5.94 1.157,-12.06 2,-16 1.181,-5.52 -1.16,-11.7 -2,-15 0,0 1.972,-13.86 2,-14 1.289,-6.51 -0.986,-12.22 -2,-17 1.037,-2.13 2.775,-6.44 2,-10 -0.63,-2.89 -3.783,-8.83 -2,-14 3.579,-10.38 -0.58,-20.8 1,-33 0.3,-2.31 -1.844,-3.73 -1,-7 2.393,-9.27 0.065,-19.06 1,-30 0.109,-1.27 1.567,-5.19 1,-8 l -2,-2 c -0.959,-4.84 0.728,-15.75 2,-20 1.331,-4.45 -2.433,-5.38 -2,-10 0.617,-6.58 1.251,-19.43 2,-28 0.976,-11.17 -2.778,-19.05 0,-31 l -2,-20 2,-2 c 0.838,-3.52 -1.567,-3.67 -2,-5 -0.324,-1 -0.294,-16.57 0,-18 1.143,-5.58 3.286,-20.61 2,-26 -1.778,-7.46 -2.334,-12.5 0,-20 1.057,-3.4 -1.527,-11.91 -2,-15 v -142 c 0,-13.65 -2.118,-33.78 0,-44 2.63,-12.69 -2.4,-28.93 -1,-40 1.436,-11.39 -1.253,-21.46 0,-37 1.73,-21.47 0.719,-47.14 1,-69 0.159,-12.4 -1.755,-23.6 0,-34 0.761,-4.51 -0.325,-11.06 -1,-14 -1.69,-7.37 0.282,-30.37 1,-34 q -0.5,-9.495 -1,-19 c 5.01,-22.86 -2.584,-42.6 1,-63 -0.333,-2.33 -0.667,-4.67 -1,-7 v -31 c 0.09,-23.03 1.5,-44.37 1,-68 -0.237,-11.15 -1.607,-28.68 0,-37 q -0.5,-19.5 -1,-39 c 0,-24.31 -3.185,-59.75 1,-82 -0.333,-2.33 -0.667,-4.67 -1,-7 -0.563,-11.12 -0.778,-25.56 1,-35 2.009,-10.67 -3.426,-26.57 -1,-39 1.217,-6.24 -1.635,-18.86 0,-28 1.092,-6.11 1.026,-22.19 0,-29 -1.855,-12.31 -1.82,-47.19 1,-61 1.284,-6.29 -1.085,-23.01 0,-31 1.161,-8.55 -1.546,-19.4 0,-27 0.688,-3.38 -0.7,-7.05 -1,-9 v -49 c 2.869,-14.71 0,-44.33 0,-63 v -153 c 0,-24.9 -2.932,-57.69 1,-76 0.885,-4.12 -0.774,-8.15 -1,-11 q 0.5,-7.995 1,-16 c -1.914,-8.79 -3.2,-34.75 -1,-45 2.177,-10.14 0.11,-19.61 0,-31 l 1,-13 c -0.968,-6.73 -2.7,-19.72 -1,-28 2.133,-10.39 -1.441,-30.94 0,-42 5.245,-40.24 -6.069,-107.37 1,-149 q -0.5,-7.995 -1,-16 c -0.01,-13.75 2.321,-35.06 1,-44 -1.073,-7.26 -2.81,-21.2 -1,-30 1.839,-8.94 -2.69,-20.46 0,-33 1.707,-7.96 0,-22.09 0,-33 0,-20.21 3.4,-44.05 0,-59 -2.288,-10.07 2.694,-17.21 1,-26 -3.021,-15.67 -3.2,-44.35 0,-60 l -1,-10 c -0.23,-12.09 -0.26,-23.21 1,-32 0.386,-2.7 -1.954,-9.57 -1,-14 2.008,-9.33 -1.321,-17.99 0,-30 4.408,-40.07 -4.675,-95.61 1,-132 1.407,-9.02 -1.56,-21.39 -1,-32 q 0.5,-4.5 1,-9 c -0.691,-3.41 -1.972,-11.02 -1,-16 2.515,-12.88 -0.069,-30.21 0,-47 0.058,-14.24 0.582,-31.68 0,-45 l 1,-13 c -2.636,-12.98 -2.364,-29.43 -1,-43 0.775,-7.71 0.429,-22.37 1,-32 q -0.5,-4.5 -1,-9 c 0.782,-6.56 2.014,-15.14 0,-24 q 0.5,-15.495 1,-31 c -2.57,-12.31 -0.993,-36.18 1,-45 0.327,-1.45 -1.856,-4.54 -2,-7 -0.743,-12.65 -0.311,-32.72 1,-40 l -1,-13 q 0.5,-24.99 1,-50 -0.5,-15.495 -1,-31 c 2.272,-11.14 -0.064,-29.74 0,-46 l 1,-13 c -1.754,-9.14 -1.866,-25.86 0,-35 1.153,-5.65 -1,-24.64 -1,-33 0,-27.71 -2.084,-61.61 1,-85 0.514,-3.9 -1,-12.43 -1,-18 v -96 q 0.5,-4.5 1,-9 c -2.771,-15.96 -3.436,-52.23 0,-68 2.143,-9.83 -2.735,-27.23 0,-40 q -0.5,-5.505 -1,-11 c -0.312,-16.07 -2.05,-36.76 1,-51 q -0.5,-7.005 -1,-14 c -0.05,-12.88 1.9,-30.67 1,-39 -0.534,-4.96 -2.18,-14.45 -1,-21 2.217,-12.31 -0.893,-32.09 1,-43 q -0.5,-4.5 -1,-9 c 1.085,-6.18 -1.03,-17.06 0,-23 1.324,-7.64 2.208,-22.5 1,-29 -2.381,-12.82 -1.658,-33.47 0,-42 3.508,-18.04 -3.241,-32.19 0,-47 q -0.5,-6 -1,-12 c 1.083,-12.93 -1.414,-29.9 1,-43 0.834,-4.53 -0.638,-16.96 -1,-20 -0.508,-4.27 0.763,-8.01 1,-11 q -0.5,-6 -1,-12 c 0.157,-8.08 1.146,-13.88 1,-23 q -0.5,-8.505 -1,-17 c 4.183,-19.13 1.049,-45.9 1,-67 q -0.5,-7.5 -1,-15 c 3.482,-17.19 2.536,-56.87 0,-76 -0.78,-5.89 1,-17.34 1,-25 0,-22.08 -0.382,-46.57 -1,-67 -0.657,-21.72 1,-48.74 1,-71 0,-21.37 -1.744,-42.72 0,-60 0.792,-7.84 -0.8,-17.78 -1,-24 -0.878,-27.81 1,-60.48 1,-90 V 807 c 0,-142.838 -0.008,-279.2 0,-405 0,-47.191 0,-88.245 0,-135 0,-19.027 -3.564,-49.635 2,-62 5.077,1.663 10.724,0.033 16,0 16.17,-0.1 28.5,1.762 41,0 7.564,-1.066 12.745,3.806 19,-1 z m -59,10 c -2.509,2.225 -7.375,4.061 -9,7 -7.341,13.278 3.757,24.51 18,24 2.867,-2.665 5.487,-2.716 7,-7 5.3,-5.261 3.549,-18.617 -3,-21 -2.836,-2.62 -7.44,-3.055 -13,-3 z m 9749,0 c -0.86,0.649 -3.14,1.338 -4,2 -5.13,1.381 -5.01,3.834 -8,7 v 11 c 1.66,1.757 1.51,3.884 3,6 2.33,1.667 4.67,3.333 7,5 7.91,0.357 13.66,-0.849 16,-6 2.93,-3 3.96,-7.027 4,-13 -3.15,-3.535 -3.89,-7.3 -8,-10 -2.38,-1.909 -5.49,-2.056 -10,-2 z M 257,328 v -3 c -5,-0.145 -3.926,-3.326 -7,-8 -14.226,-21.635 -13.1,-26.852 -6,-53 -3.742,-1.4 -8.394,-6.155 -11,-9 h -2 c -5,14.294 -20.534,32.049 -15,56 1.15,4.976 0.286,8.773 1,12 1.559,7.046 6.812,12.469 8,20 -5.434,4.573 -4.779,12.982 -7,21 -4.808,17.353 -7.536,40.458 -7,60 0.26,9.491 -0.377,18.855 0,32 0.078,2.714 -1.82,9.572 -1,14 1.879,10.149 -1.326,17.867 1,33 0.217,1.414 -1.6,5.934 -1,9 1.522,7.715 1.338,20.038 0,29 -0.627,4.2 1.1,14.313 0,19 -3.22,13.71 1.7,25.116 0,40 -1.8,15.744 0.337,28.413 0,47 -0.313,17.283 -1.367,34.837 0,48 1.252,12.056 -1,30.126 -1,44 v 108 c 0,22.3 -1.855,44.038 0,64 0.444,4.78 2.676,9.051 2,15 -1.8,15.811 -3.488,51.82 0,66 0.755,3.068 -0.777,7.518 -1,9 -0.788,5.23 1.12,17.93 2,21 l -1,10 q 0.5,15.495 1,31 c 0,4.32 -1.285,10.17 -1,13 2.71,26.99 -2.331,55.14 1,75 0.786,4.69 -1.328,12.69 0,19 0.577,2.74 -0.78,4.52 -1,6 -1.475,9.92 -0.9,25.74 1,34 q -0.5,12 -1,24 c 1.532,11.81 -2.557,27.85 -1,43 1.965,19.12 1.431,37.08 1,55 -0.242,10.05 1.1,20.53 0,27 -1.171,6.9 0.826,15.07 1,20 0.535,15.12 0.71,36.57 -1,45 -2.282,11.25 1.615,21.89 0,30 -3.726,18.71 3.178,41.9 1,59 -0.964,7.57 0.174,14.27 1,21 0.344,2.81 -1.477,0.83 -2,2 -1.09,2.45 -1.122,33.44 0,40 0.774,4.52 1.6,23.6 0,33 -1.585,9.31 1.857,20.22 1,28 -1.706,15.49 -0.016,39.27 0,60 0.027,35.58 -1.138,69.26 0,108 0.3,10.17 0.345,29.52 -1,37 -1.56,8.68 1.07,21.75 0,27 -0.546,2.68 0.736,5.86 1,7 1.5,6.5 0.131,18.05 -1,23 -0.84,3.68 1.23,6.55 1,9 -1.219,12.99 -1.8,29.87 0,43 0.282,2.05 -0.984,5.69 -1,9 -0.06,12.34 1.45,24.71 0,33 -2.79,15.95 2.256,35.67 1,50 -1.007,11.49 -0.4,27.35 0,41 0.286,9.85 -1.134,24.87 0,34 1.529,12.32 -2.284,27.3 0,39 q -0.5,8.505 -1,17 c 0,14.5 -0.9,23.41 0,38 0.333,2.67 0.667,5.33 1,8 -0.771,4.98 -2.019,14.43 -1,21 2.821,18.19 -3.08,46.74 1,66 q -0.5,24.99 -1,50 c 1,0.67 2,1.33 3,2 l -1,10 c 0.254,8.89 -0.984,28.17 1,35 1.212,4.17 -0.53,11.36 -1,14 -1.3,7.3 0.6,21.24 2,28 1.252,6.03 -0.869,13.93 -2,19 -0.965,4.32 1.625,11.38 2,15 0.3,2.93 -3.378,5.02 -2,10 l 2,2 c 0.664,2.51 -0.837,3.65 -1,5 q 0.5,4.5 1,9 c -0.789,4.44 -2.231,15.47 -2,20 0.918,17.97 -0.573,46.49 1,70 0.806,12.05 -1.572,22.17 0,32 q -0.5,6 -1,12 c 1.013,4.92 1.93,14.48 1,21 -0.228,1.6 -1.6,4.06 -1,7 1.44,7 2.785,21.06 2,26 -0.206,1.3 -1.555,5.12 -1,8 1.745,9.04 0.783,30.31 -1,43 -0.278,1.98 0.957,4.05 1,7 0.215,14.66 2.835,29.72 -1,42 3.312,7.93 -2.312,16.51 0,27 0.427,1.94 2.44,9.93 2,12 -0.248,1.17 -2.369,0.9 -2,4 3.026,25.47 1,53.88 1,79 0,6.51 -1.573,13.84 -1,19 1.054,9.49 3.116,31.01 2,42 -0.226,2.22 -2.3,9.58 -2,12 0.707,5.68 3.265,25.44 2,34 -2.659,17.99 -2.645,57.72 -1,66 1.7,8.55 0.086,22 -1,29 -0.64,4.13 3.611,11.01 2,16 -1.835,5.69 -1.906,24.26 -1,29 4.1,21.44 -2.978,41.26 -1,61 2.444,24.39 1.095,64.95 1,93 -0.033,9.68 -1.536,23.99 0,33 0.712,4.17 -1.147,8.19 -1,11 0.7,13.44 -1.151,28.11 1,35 3.278,10.5 -0.873,30.7 -1,37 -0.591,29.22 1,63.08 1,94 0,13.16 0.482,29.15 -1,38 -0.509,3.04 1,12.14 1,17 -0.006,21.63 2.171,36.52 -1,57 -0.793,5.12 1.516,15.78 2,19 0.286,1.9 -1.726,7.43 -2,9 0.333,2.67 0.667,5.33 1,8 0.192,11.61 0.217,19.9 -1,28 -0.742,4.94 1,16.22 1,23 0,30.24 2.918,56.13 -1,84 -0.452,3.22 1.871,9.21 1,14 -1.846,10.16 -0.962,33.06 1,44 q -1,5.505 -2,11 c 1.232,18.44 3.539,50.77 1,74 -1.674,15.31 0,34.76 0,55 0,10.23 -1.761,18.66 -1,26 1.578,15.23 1.979,42.05 0,49 -0.882,3.1 0.81,4.77 1,7 v 33 c 0.333,1.67 0.667,3.33 1,5 h -2 q 0.5,10.995 1,22 c -1.923,8.98 1.09,28.86 -1,42 -0.323,2.03 2.423,3.97 2,7 -2.971,21.27 0.329,50.31 -2,64 q 1,6.495 2,13 c -1.967,22.61 2.674,60.88 -2,87 -3.652,20.4 2.891,45.19 1,64 -2.661,26.48 -1,57.81 -1,86 v 155 c 0,118.98 0,226.77 0,346 v 141 c -0.384,1.2 -2.144,0.36 -2,3 l 2,4 c 0.833,4.24 -2.517,3.94 -2,7 0.667,0.33 1.333,0.67 2,1 2.962,9.3 -1.609,23.29 -2,25 -0.5,2.2 1.806,2.96 2,4 0.871,4.64 -2.977,4 -2,8 2.938,12.04 2.769,25.39 1,37 -0.435,2.86 0.738,16.53 1,18 1.864,10.42 -2.216,17.67 -1,26 a 184.838,184.838 0 0 1 1,47 c -0.685,6.39 -0.411,15.35 -2,21 0.979,1.88 2.817,4.31 2,8 -0.245,1.11 -2.4,3.03 -2,5 0.667,0.33 1.333,0.67 2,1 0.869,2.89 -1.743,15.41 -2,16 3.493,5.3 1.993,27.21 0,35 -0.881,3.44 1.587,4.43 2,6 1.061,4.02 -0.468,20.74 -2,25 3.61,7.24 0.876,34.7 0,40 -0.852,5.15 2.385,6.56 2,11 -0.468,5.38 -0.372,16.98 -2,22 a 28.673,28.673 0 0 1 2,10 l -2,2 c -0.144,0.78 1.893,3.57 2,4 1.276,5.05 -1.277,9.34 -2,12 -1.751,6.44 3.194,9.29 2,14 -0.894,3.53 -2.939,9.68 0,18 -0.975,2.18 -2.84,5.19 -2,10 0.176,1.01 2.473,3.98 2,7 -0.42,2.68 -2.029,6.09 -2,11 q 0.5,7.995 1,16 c -1.563,10.37 -1.285,26.4 0,38 a 84.064,84.064 0 0 1 -1,24 c -1.41,6.33 0.458,12.92 1,17 0.3,2.25 -1.393,4.59 -1,8 0.786,6.83 1.07,15.36 0,22 -0.29,1.8 2.5,2.55 2,5 -0.207,1.02 -1.914,1.18 -2,4 -0.29,9.56 2.251,21.08 0,33 -1.372,7.27 1.73,15.69 1,23 -3.383,33.86 2.755,72.78 -1,94 v 21 c 0,14.67 -0.831,32 1,45 1.533,10.89 -4.805,23.42 -1,36 1.257,4.16 -1.528,18.18 0,28 0.734,4.71 -1.653,17.31 0,25 2.192,10.19 1.534,28.43 0,37 -1.534,8.57 -0.46,28.57 2,34 -3.595,5.62 -1.165,14.82 -1,21 0.79,29.58 -1.878,69.86 3,92 2.539,11.52 3.416,22.72 7,32 1.158,3 3.763,9.12 3,10 -1.569,5.59 -5.28,10.85 -7,16 -5.931,17.78 1.178,43.78 6,55 2.61,6.07 3.752,12.73 10,15 3.191,-4.12 8.038,-6.53 11,-11 -4.55,-3.77 -3.485,-8.8 -5,-16 -4.41,-20.96 9.98,-36.69 20,-47 1.754,0.63 0.971,0.19 2,1 1.624,1.35 1.121,0.64 2,3 -9.784,5.26 -15.409,27.69 -10,42 4.724,12.5 17.464,23.41 31,27 17.606,4.67 26.112,-9.3 38,-11 v 2 c 0.251,0.97 0.784,0.38 0,1 -7.456,10.61 -26.218,24.91 -48,20 -6.315,-1.42 -12.09,-4.01 -18,-5 a 31.239,31.239 0 0 1 -7,9 c 0.631,1.75 0.193,0.97 1,2 5.075,6.24 39.473,18.19 57,14 8.909,-2.13 18.332,-6.81 26,-8 9.081,12.16 48.917,10.27 63,13 h 28 c 6.8,-1.27 16.418,1.1 26,0 9.451,-1.08 30.769,0 50,0 8.3,0 22.035,-0.86 27,0 9.741,1.68 23.239,-1.44 30,0 20.929,4.46 48.608,-3.42 64,0 h 45 c 6.609,0 16.057,1.48 21,1 2.636,-0.26 8.747,-1.74 13,-1 25.169,4.37 49.587,-2.25 75,2 8.513,1.42 21.013,-1.29 28,0 20.36,3.75 45.212,-2.89 64,-1 39.839,4.01 76.473,1 123,1 57.12,0 119.8,0.63 176,-1 21.83,-0.63 38.47,0.29 56,1 8.23,0.33 18.68,-2 26,-1 9.6,1.31 21.42,1.88 31,0 3.67,0.33 7.33,0.67 11,1 15.16,0.55 31.25,1.07 46,-1 4.18,-0.59 13.11,1.1 19,1 23.84,-0.4 54.1,3.27 79,-1 3,0.33 6,0.67 9,1 h 43 c 41.41,-4.28 73.79,4.09 110,-1 7.71,-1.08 20.46,1.98 30,1 34.73,-3.58 82.51,2.33 111,-1 11.91,-1.39 24.53,3.54 39,1 9.62,-1.69 28.95,-0.03 46,0 9.81,0.02 17.69,-1.26 24,0 7.1,1.42 16.52,-1.54 22,-1 8.99,0.89 19.57,2.76 31,1 8.3,-1.28 28.77,-0.5 39,0 q 6,-0.495 12,-1 c 3.67,0.54 11.76,2.13 17,1 14.11,-3.05 34.62,0 55,0 38.35,0 79.31,-0.63 116,1 33.07,1.47 62.09,-4.09 89,0 8.75,1.33 22.74,-1.58 31,0 18.47,3.52 40.47,-2.47 55,-1 20.29,2.05 45.04,1 67,1 h 456 c 68.32,0 139.35,-1.03 206,1 9.19,0.28 23.11,-1 34,-1 h 20 c 1.69,-0.42 5.36,-2.94 7,-3 l 5,2 c 7.66,1.23 15.06,-1.65 23,0 h 56 c 3,-0.33 6,-0.67 9,-1 21.86,3.85 50.27,1 74,1 34.24,0 72.57,2.93 105,-1 q 9.495,0.495 19,1 c 20.01,-0.02 45.06,0.05 68,0 53.22,-0.11 114.51,0 171,0 h 1900 c 0.56,0.09 4.11,-0.91 6,0 2.84,1.36 3.24,8.01 10,6 2.59,-0.77 3.9,-5.03 6,-6 h 1699 c 21.92,0 55.07,3.08 73,0 10.5,-1.8 26.07,-0.26 35,1 4.39,0.62 13.89,-1 20,-1 18.4,0 39.64,2.3 53,0 18.33,-3.16 42.1,0.5 59,1 20.31,0.6 39.22,-1 61,-1 11.28,0 25.62,1.87 35,0 19.33,-3.84 45.78,2.9 62,0 5.34,-0.95 13.24,0.36 17,1 3.64,0.62 9.9,-1.2 15,-1 11.75,0.45 38.59,2.27 50,0 23.04,-4.58 59.64,3.87 79,0 h 148 c 13.98,0 30.69,-0.9 43,1 0.88,0.14 5.55,-0.99 8,-1 13.38,-0.05 35.87,-2.79 50,0 q 49.995,0.495 100,1 c 39.42,0 79.1,-3.38 111,1 3.33,-0.33 6.67,-0.67 10,-1 9.17,-0.03 21.54,1.85 29,1 2.92,-0.33 6.5,-1.54 12,-1 14.55,1.42 39.43,1.69 56,1 69.55,-2.9 142.84,0.8 212,-1 20.26,-0.53 37.61,1.9 58,1 22.59,-1 49.64,-1.1 75,-1 13.35,0.06 26.47,1.59 36,0 2,0.33 4,0.67 6,1 15.62,-1.65 26.07,1 37,-1 4.79,-0.88 11.79,0.48 15,1 8.16,1.32 22.47,-0.99 33,-1 q 8.505,0.495 17,1 c 33.7,-4.75 87.76,3.34 127,-1 7.36,-0.81 22.51,1.78 31,1 13.12,-1.21 30.2,-0.49 48,0 15.11,0.41 29.58,-2.68 47,0 1.5,0.23 7.81,-1 11,-1 h 270 c 17.61,0 39.19,2.03 55,-1 3.89,-0.74 9.75,0.9 14,1 12.66,0.3 25.37,0.71 39,-1 4.88,-0.61 13.55,1.01 20,1 22.62,-0.03 56.11,1.52 81,-2 9.3,-1.32 23.85,2.25 35,1 17.18,-1.93 46.46,-1.1 65,-2 8.16,-0.4 26.26,0.86 36,-1 12.92,-2.47 34.46,0.24 48,-3 16.05,-3.84 31.39,-1.58 46,-6 3.32,-1.01 16.9,-7.32 19,-7 2.14,0.32 5.94,4.13 8,5 6,2.54 14.16,2.4 21,4 16.74,3.91 54.05,-8.47 56,-18 -4.03,-3.18 -5.59,-8.09 -11,-10 -3.53,3.42 -7.24,2.37 -13,4 -20.76,5.88 -37.14,-8.47 -48,-19 v -3 c 7.59,1.66 13.1,7.91 21,10 25.42,6.73 55.64,-20.21 51,-42 -2.32,-10.88 -8.95,-18.45 -11,-28 h 1 v -1 c 1,0.33 2,0.67 3,1 2.13,5.84 7.91,7.43 11,12 2.45,3.63 4.71,9.96 6,14 4.69,14.72 -3.12,29.57 -3,40 3.41,1.1 7.05,4.37 9,7 h 1 v -1 c 9.14,-6.67 18.6,-43.02 14,-61 -1,-3.93 -7.57,-19.62 -7,-22 0.93,-3.87 5.57,-10.31 7,-15 6.74,-22.16 5,-51.18 5,-79 v -424 c 0,-20.02 -1.1,-42.64 1,-61 5.04,-1.42 6.77,-4.89 10,-8 a 30.342,30.342 0 0 0 -1,-7 c -1.29,-0.67 -8.03,-2.31 -9,-3 -2.81,-2.01 -1.17,-18.45 -1,-23 3.46,-6.66 -2.85,-46.08 0,-61 1.81,-9.49 0,-28.15 0,-41 v -53 c 0,-4.9 1.29,-11.64 1,-15 -1.22,-14.26 -3.78,-36.27 -1,-52 2.71,-15.36 0,-43.62 0,-65 v -573 c 0,-28.36 -1.71,-61.97 2,-87 0.36,-2.42 -1.67,-3.16 -2,-5 -2.07,-11.38 0.24,-28.75 2,-37 -0.67,-2 -1.33,-4 -2,-6 v -55 c 0.99,-4.26 2,-37.66 0,-49 -0.48,-2.71 1.91,-7.77 1,-12 -1,-4.66 -2.23,-14.77 -1,-21 1.43,-7.26 1.71,-39.33 0,-46 q 0.495,-12.495 1,-25 c -2.43,-11.29 -3.28,-33.06 -1,-46 2.22,-12.62 -0.48,-19.44 0,-35 0.33,-10.86 2.87,-34.44 0,-48 -1.97,-9.31 2.46,-20.2 1,-28 -4.09,-21.94 -1.98,-59.39 1,-78 -4.97,-11.98 -0.06,-31.96 0,-46 l -2,-2 c -2.54,-9.81 1.57,-21.73 1,-32 -0.51,-9.17 -3.31,-24.39 -1,-35 2.19,-10.05 0.35,-16.56 0,-25 v -18 c 0.23,-0.75 1.94,-0.46 2,-2 0.04,-1.08 -1.87,-2.46 -2,-3 -0.98,-3.94 0.8,-6.49 1,-8 0.83,-6.17 -1,-18.04 -1,-26 q -0.495,-10.005 -1,-20 c 4.28,-25.39 1,-57.71 1,-85 0,-17.45 2.34,-39.4 -1,-55 q 0.495,-7.5 1,-15 v -434 c 0,-7.6 -0.73,-19.61 0,-24 4.6,-27.87 -4.7,-61.76 0,-82 q -0.495,-12 -1,-24 c 2.96,-14.18 1,-34.78 1,-53 v -40 c -0.6,-4.9 -1.08,-17.87 0,-23 v -650 c 0,-20.9 -2.63,-46.2 0,-59 2.94,-14.31 -2.05,-34.75 0,-46 1.64,-8.98 0.51,-23.61 -1,-31 q 0.495,-9 1,-18 c -1.66,-7.69 0.02,-15.9 0,-25 -0.03,-14.16 -2.11,-29.6 0,-42 1.12,-6.58 -1.42,-15.04 -1,-20 2.71,-31.96 1.56,-66.88 1,-100 -0.14,-8.09 -1.41,-27.28 0,-35 v -687 c 0,-16.37 -2.87,-45.83 0,-58 V 653 c 0,-22.424 -2.34,-55.884 0,-69 -3.94,-10.652 -2,-40.707 -2,-55 0,-17.114 -0.01,-36.919 -2,-51 3.14,-7.553 1.81,-38.823 0,-47 q -0.495,-16.5 -1,-33 c -3.13,-13.88 -2.72,-29.837 -7,-43 -1.38,-4.226 -6.26,-11.69 -5,-15 1.66,-5.821 5.46,-11.243 7,-17 5.56,-20.784 -4.28,-62.487 -16,-68 v 1 c -4.4,1.393 -9.31,5.818 -11,10 3.52,3.769 2.4,7.852 4,14 6.04,23.161 -9.76,34.562 -19,48 h -3 c 1.64,-7.837 7.92,-13.181 10,-21 7.17,-26.947 -20.37,-57.553 -46,-51 -8.95,2.288 -16.09,8.312 -24,11 v -1 h -1 c 0.33,-1 0.67,-2 1,-3 11.48,-7.74 23.14,-24.345 47,-19 6.32,1.416 11.91,4.032 18,5 1.27,-1.879 7.51,-8.118 6,-9 -2.34,-7.052 -9.21,-7.437 -16,-10 -12.85,-4.854 -34.77,-9.145 -52,-4 -4.6,1.374 -9,4.614 -14,6 -7.42,-9.859 -30.08,-8.722 -44,-12 h -16 c -6.54,-1.444 -17.23,0.718 -25,-1 -7.57,-1.674 -21.43,-1.32 -29,0 -3.87,0.675 -12.45,-0.358 -16,-1 -6.48,-1.173 -16.1,0.291 -21,1 -7.06,1.022 -21.26,-0.7 -30,-2 -8.13,-1.213 -16.82,2.782 -27,1 -5.46,-0.956 -16.11,1.769 -23,0 -1.11,-0.285 -1.75,-2.428 -4,-2 -1.46,0.278 -3.87,2.659 -8,2 -7.4,-1.18 -35.15,-2.479 -48,0 -7.71,1.488 -15.57,-3.493 -19,0 -3.09,0.574 -2.9,-1.791 -4,-2 -2.78,-0.525 -0.9,0.942 -2,2 -3.48,0.778 -3.75,-1.69 -5,-2 -1.75,-0.435 -9.64,1.9 -10,2 -3.86,1.025 -8.01,-0.9 -9,-2 -2.41,-0.4 -3.16,1.7 -5,2 -4.11,0.674 -5.36,-1.475 -7,-2 -2.24,-0.716 -5.44,1.635 -7,2 -0.15,0.035 -9.29,-1.791 -10,-2 -0.33,0.667 -0.67,1.333 -1,2 -3.46,0.728 -2.12,-1.546 -4,-2 -3.08,-0.744 -7.5,0.755 -9,1 -6.21,1.012 -15.98,-2.591 -24,-1 -0.33,0.667 -0.67,1.333 -1,2 -2.57,0.51 -1.99,-1.792 -3,-2 -3.8,-0.785 -3.15,3.475 -8,2 -1.74,-0.529 -3.69,-2.716 -8,-2 h -1 c -0.33,0.667 -0.67,1.333 -1,2 -1.43,0.469 -1.47,-1.886 -2,-2 -2.83,-0.6 -4.47,1.784 -6,2 -2.8,0.4 -1.06,-0.563 -2,-2 -2.33,-0.483 -3.72,1.667 -5,2 -2.65,0.687 -5.42,-1.9 -7,-2 -1.7,-1.378 -0.72,1.882 -1,2 -0.31,0.13 -16,0 -16,0 -9.15,-2.284 -24.66,-2.506 -35,0 -1.75,0.424 -4.9,-1.725 -6,-2 -5.79,-1.444 -21.44,-0.367 -25,0 -1.67,0.172 -3.43,2.381 -6,2 -0.55,-0.082 0.72,-2.435 -2,-2 -0.6,0.095 0.77,2.482 -2,2 -0.61,-0.106 0.73,-2.338 -2,-2 v 2 c -2.37,0.231 -4.39,-3.514 -9,-2 v 2 c -2.57,0.467 -4.51,-2.471 -9,-2 -0.6,0.063 -6.42,2.213 -8,2 -0.33,-0.667 -0.67,-1.333 -1,-2 -8.38,-2.074 -26.68,1.059 -33,2 -3.05,0.455 -3.49,-1.589 -5,-2 -1.84,-0.5 -27,0 -27,0 v 2 c -2.63,0.452 -1.88,-1.66 -3,-2 -0.86,-0.262 -16.53,-0.45 -19,0 -18.06,3.287 -41.46,-1.153 -56,1 -3.5,0.518 -12.34,-0.7 -14,-1 -8.18,-1.47 -16.37,1.9 -22,2 l -4,-2 c -4.38,-1.007 -8.14,0.639 -11,1 -6.31,0.8 -12.34,-1.941 -19,-1 -20.44,2.891 -52.3,-1.606 -76,2 -3.53,0.538 -5.04,-1.5 -7,-2 -4.77,-1.218 -12.63,0.564 -17,0 -4.51,-0.582 -4.12,2.937 -8,2 -1.42,-0.343 -3.91,-3.194 -8,-2 -13,3.8 -41.39,-1.489 -58,2 -6.7,1.408 -15.23,-2.517 -20,-2 l -3,2 c -9.83,2.587 -23.24,-1.556 -28,0 -1.54,0.5 -29.02,0.287 -30,0 -1.05,-0.306 -0.42,-2.606 -3,-2 -11.43,2.682 -22.31,1.426 -38,1 -10.93,-0.3 -27.91,1.548 -39,0 -2.04,-0.285 -5.7,0.984 -9,1 -12.75,0.061 -27.89,-0.562 -39,1 -9.11,1.281 -27.65,-1 -39,-1 -103.71,0 -214.16,0 -321,0 l -302,-1 c -7.35,1.366 -17.32,-2.06 -27,0 -7.5,1.6 -13.63,-1.387 -24,0 -24.31,3.251 -52.31,-2.916 -78,1 -10.77,1.642 -26.99,-2.141 -37,0 -14.07,3.008 -33.97,-2.348 -45,0 -4.62,0.983 -10.96,-0.951 -14,-1 -12.68,-0.2 -25.23,0.931 -36,1 -7.94,0.051 -14.88,-1.429 -21,0 l -25,-1 c -16.3,3.147 -48.45,-1.786 -62,1 l -17,-1 c -18.9,3.254 -47.66,-3.143 -67,1 -2.66,0.571 -5.87,-0.739 -7,-1 -6.04,-1.393 -16.51,0.009 -21,1 l -14,-1 c -10.38,2.167 -22.75,1.4 -31,0 l -28,1 c -5.72,-0.463 -14.18,-1.168 -20,0 -7.09,1.424 -14.45,-1.549 -22,0 l -9,-1 c -12.32,-0.387 -24.83,2.385 -35,0 -5.86,-1.373 -12.58,1.649 -17,1 -20.98,-3.08 -53.01,-2.943 -74,0 l -10,-1 h -61 c -6.53,1.179 -21.21,0 -31,0 h -45 l -12,1 c -12.93,-2.512 -50.37,-3.243 -65,-1 -11.27,1.727 -32.3,0 -47,0 h -98 c -85.37,0 -168.34,0 -259,0 -370.75,0 -754.89,0 -1134,0 -0.81,3.717 -1.13,5.072 -5,6 v -1 c 1.94,-1.667 1.67,-1.439 2,-5 l -287,-1 h -91 c -10.05,0 -23.7,-1.8 -32,-1 -28.14,2.724 -61.15,1 -91,1 h -33 c -11.21,1.707 -27.38,-1.458 -38,0 -9.74,1.337 -22.92,-0.725 -34,0 -9.49,0.621 -23.07,0.923 -29,0 -7.31,-1.138 -25.25,1 -35,1 -24.41,0 -49.33,1.511 -69,-1 -9.57,-1.222 -24.75,1.618 -36,0 -2.05,-0.295 -9.22,1 -13,1 h -62 c -19.95,-2.007 -43.47,-0.035 -64,0 h -39 l -10,-1 c -16.95,2.441 -59.51,3.53 -76,0 -2.93,-0.628 -5.4,0.763 -7,1 -7.32,1.09 -19.13,-0.662 -22,-1 -7.52,-0.884 -20.7,1 -30,1 h -425 c -8.92,0.224 -23.85,1.1 -30,0 h -182 c -15.64,0 -38.69,2.282 -52,1 -19.15,-1.844 -36.93,-1.009 -52,0 -12.38,0.829 -28.61,-2.172 -42,-1 -24.38,2.135 -50.02,1.176 -81,0 -15,-0.569 -28.73,2.777 -48,0 -4.37,-0.63 -14.81,1 -21,1 -25.95,0 -52.69,1.934 -75,-1 -9.88,-1.3 -28.9,1 -41,1 -15.99,0 -34.68,-0.975 -49,1 l -21,-1 c -6.96,0.434 -20.21,1.413 -28,0 l -10,1 c -11.16,0.025 -22.49,0.016 -29,-1 -6.68,-1.043 -13.5,1.369 -22,1 -12.32,-0.535 -33.9,-1.753 -46,0 -5.47,0.792 -9.63,-1.79 -15,-1 -9.76,1.436 -21.32,1.327 -29,0 H 2039 c -10.44,-2.065 -19.31,-0.511 -29,-2 -4.21,-0.647 -3.97,2.489 -7,2 -16.67,-2.689 -39.91,-3.245 -56,-1 -6.47,0.9 -13.31,-1.024 -22,-1 -10.65,0.029 -22.64,0.195 -30,0 l -8,1 c -8.79,-1.613 -24.78,-0.982 -33,0 -10.11,1.208 -20.72,-2.073 -31,-1 -31.22,3.26 -71.21,-2.782 -102,1 -3.72,0.457 -11.64,-1.055 -17,-1 -17.74,0.183 -38.42,-0.615 -50,2 -5.13,1.158 -9.14,-0.78 -12,-2 -1.92,-0.821 -0.57,1.343 -1,2 -3.06,0.419 -3.47,-1.561 -5,-2 -4.02,-1.154 -8.31,1.216 -11,1 -7.84,-0.629 -27.21,1.251 -31,-1 v 2 c -2.21,0.844 -15.89,-3.305 -24,-2 -11.25,1.81 -22.74,1.562 -36,2 -10.22,0.338 -12.26,-1.862 -18,0 -9.87,3.2 -24.16,-0.7 -31,-1 -36.39,-1.578 -78.55,3.685 -114,0 -18.89,-1.964 -45.31,5.614 -60,-1 -5.44,4.088 -12.82,0.875 -17,0 -9.41,4.839 -24.25,0.556 -34,1 -51.68,2.352 -90.74,-0.339 -156,0 -106.582,0.553 -234.149,1 -349,1 H 642 c -19.486,0 -42.241,-1.567 -60,1 -3.175,0.459 -12.042,-1 -17,-1 h -55 l -84,1 c -21.829,0 -47.3,-1.667 -66,3 -11.89,2.968 -18.772,6.549 -29,10 -17.924,-17.376 -65.389,-3.987 -81,6 v 2 c 3.731,3.011 4.405,7.762 10,9 4.324,-4.389 20.885,-7.489 31,-5 8.313,2.046 30.715,12.2 32,23 h -1 v 1 c -7.258,-3.9 -14.916,-9.9 -24,-12 -21.835,-5.054 -41.56,15.33 -46,34 -0.842,3.539 0.45,19.609 2,23 2.526,5.527 9.985,8.454 8,16 a 15.7,15.7 0 0 0 -5,-1 z m 19,-58 c 10.652,-0.471 19.437,0.417 22,8 5.427,5.629 1.684,14.557 0,21 -3.049,1.849 -7.435,4.466 -10,7 -10.756,0.452 -18.471,-1.365 -21,-9 -3.323,-4.134 -1.8,-13.424 -1,-19 a 68.33,68.33 0 0 0 10,-8 z m 9625,0 c 15.86,-0.4 16.94,3.464 24,11 a 67.741,67.741 0 0 1 -2,18 c -8.22,5.8 -25.9,12.973 -31,-2 -5.1,-6.127 -1.84,-14.542 0,-21 z m 11,6037 c 5.9,-0.08 8.79,0.98 13,2 12.17,15.88 10.63,21.26 -3,34 a 127.862,127.862 0 0 1 -17,-1 c -1.32,-1.6 -3.89,-2.41 -5,-4 -6.17,-8.87 -4.19,-24.61 6,-28 1.58,-1.22 4.44,-1.75 6,-3 z m -9634,6 a 51.86,51.86 0 0 1 15,2 c 8.616,11.99 9.419,12.77 5,29 -8.894,3.15 -11.038,5.59 -24,4 -2.22,-2.82 -4.6,-3.1 -6,-7 -5.562,-5.78 -1.8,-15.72 0,-22 2.97,-1.67 7.3,-3.74 10,-6 z m 9691,59 c -11.12,8.34 -13.47,8.03 -9,24 4.65,2.97 7.27,5.68 15,6 6.46,-4.33 12.58,-3.38 13,-14 0.72,-1.56 -0.64,-6.25 -1,-10 a 50.629,50.629 0 0 1 -8,-6 z m -9751,2 c -4.558,4.08 -9.24,3.75 -10,12 -4.533,6.35 2.555,15.59 7,17 14.823,12.65 31.767,-18.75 15,-26 -2.8,-2.75 -6.155,-3.11 -12,-3 z" />
  <path
     id="wizards"
     class="cls-2"
     d="m 9413,6512 c 2.59,-0.76 3.23,-1.55 5,-3 v -1 h 2 c 0.33,-0.67 0.67,-1.33 1,-2 h 2 v -1 c 3.33,-0.33 6.67,-0.67 10,-1 0.22,-0.04 0.36,-1.27 2,-1 v 1 h 6 v 1 h 3 v 1 h 2 v 1 h 2 c 0.33,0.67 0.67,1.33 1,2 h 2 c 1,1.33 2,2.67 3,4 h 1 v 2 c 0.67,0.33 1.33,0.67 2,1 0.33,1.33 0.67,2.67 1,4 h 1 v 3 c 0.39,1.08 2.36,7.42 2,9 h -1 v 6 h -1 v 3 h -1 v 2 h -1 v 2 c -0.67,0.33 -1.33,0.67 -2,1 v 2 c -1,0.67 -2,1.33 -3,2 v 1 h -2 c -0.67,1 -1.33,2 -2,3 -2.61,1.67 -15.5,4.81 -21,3 v -1 h -3 v -1 c -2,-0.67 -4,-1.33 -6,-2 -0.33,-0.67 -0.67,-1.33 -1,-2 q -3.495,-3 -7,-6 c -0.33,-1.33 -0.67,-2.67 -1,-4 h -1 c -2.11,-4.88 -2.2,-16.15 0,-21 h 1 v -2 c 0.67,-0.33 1.33,-0.67 2,-1 v -2 h 1 c 0.33,-1 0.67,-2 1,-3 z m 138,-9 q 4.995,1.5 10,3 c 0.67,1 1.33,2 2,3 1.33,1 2.67,2 4,3 v 2 h 1 c 0.33,1.33 0.67,2.67 1,4 h 1 c 0.82,1.92 2.94,13.91 2,17 h -1 v 4 h -1 v 3 h -1 c -0.67,2 -1.33,4 -2,6 -1.67,1.33 -3.33,2.67 -5,4 -0.33,0.67 -0.67,1.33 -1,2 -1.69,1.15 -2.26,0.04 -4,2 -4.24,0.31 -8.17,1.73 -11,-1 -11.31,-2.32 -18.92,-23.52 -13,-37 h 1 c 0.67,-2 1.33,-4 2,-6 1.67,-1.33 3.33,-2.67 5,-4 0.33,-0.67 0.67,-1.33 1,-2 1.69,-1.15 2.25,-0.04 4,-2 h 5 z m 39,7 v -3 a 37.106,37.106 0 0 0 10,-2 h 5 v -1 c 2.27,-0.72 3.97,-0.21 6,-1 v 46 c 3.18,1.79 4.31,3.11 9,4 v 1 h -29 v -1 a 25.64,25.64 0 0 0 8,-2 c 2.96,-6.44 2.02,-18.54 2,-28 -0.01,-4.59 0.27,-8.74 -2,-11 -1.86,-2.18 -4.8,-2.1 -9,-2 z m 346,-7 h 2 c 1.36,0.87 3.91,8.96 5,11 h 1 c 0.67,2 1.33,4 2,6 h 1 v 3 h 1 c 0.33,1.33 0.67,2.67 1,4 h 1 c 0.33,1.33 0.67,2.67 1,4 h 1 c 0.33,1.33 0.67,2.67 1,4 h 1 v 3 h 1 c 0.67,2 1.33,4 2,6 h 1 c 0.33,1.33 0.67,2.67 1,4 h 1 c 1,1.33 2,2.67 3,4 2,0.33 4,0.67 6,1 v 1 h -1 v 1 c -4.24,-1.49 -4.56,-0.22 -8,0 v -1 h -1 v 1 h -3 v -1 c -6.78,-1.75 -12.43,2.39 -16,-1 2.33,-0.33 4.67,-0.67 7,-1 v -1 h 1 v -6 c -1.28,-1.25 -2.56,-4.87 -3,-7 h -21 c -0.94,4.94 -2.87,6.66 -3,13 2.26,0.79 6.47,1.43 8,3 -4.77,0.1 -20.74,1.03 -23,-1 h 2 v -1 h 4 c 1,-1.33 2,-2.67 3,-4 h 1 c 0.33,-1.67 0.67,-3.33 1,-5 h 1 c 0.33,-1.33 0.67,-2.67 1,-4 h 1 v -2 h 1 v -2 h 1 c 0.67,-2 1.33,-4 2,-6 h 1 v -3 h 1 v -2 h 1 v -2 h 1 v -2 h 1 v -2 h 1 v -2 h 1 c 0.33,-1.33 0.67,-2.67 1,-4 h 1 v -3 h 1 c 0.67,-2 1.33,-4 2,-6 z m 208,0 h 2 v 17 h -3 c -0.2,-7.86 -3.6,-7.96 -7,-12 -4.3,-0.18 -7.5,-1.34 -10,1 -4.1,0.94 -4.2,2.93 -4,8 1.3,1 2.7,2 4,3 v 1 c 1.3,0.33 2.7,0.67 4,1 v 1 h 2 v 1 h 2 v 1 h 2 v 1 h 2 v 1 h 2 v 1 h 2 v 1 h 2 q 3,3.495 6,7 c 0.3,2 0.7,4 1,6 h -1 c -1.6,5.98 -2.1,10.55 -8,12 v 1 h -3 v 1 c -2.7,1 -9.3,0.99 -12,0 v -1 h -3 v -1 h -2 v -1 c -1.4,-0.91 -1.8,-0.66 -4,-1 -0.6,3.14 -1,4.19 -4,5 v -20 h 3 v 4 c 1.8,1.54 2.3,4.31 4,6 2.3,1.67 4.7,3.33 7,5 a 60.542,60.542 0 0 0 12,-1 c 0.9,-1.8 1.4,-1.57 2,-4 h 1 c -0.3,-2.33 -0.7,-4.67 -1,-7 h -1 a 33.125,33.125 0 0 0 -8,-6 h -2 v -1 h -2 v -1 h -2 v -1 h -3 c -0.3,-0.67 -0.7,-1.33 -1,-2 h -2 q -3,-3.495 -6,-7 c -0.3,-4.75 -1.5,-8.19 1,-12 1,-0.67 2,-1.33 3,-2 0.3,-0.67 0.7,-1.33 1,-2 1.7,-1.15 2.3,-0.03 4,-2 h 12 v 1 h 2 v 1 c 1.7,0.33 3.3,0.67 5,1 0.3,-1.33 0.7,-2.67 1,-4 z m -631,44 c -0.33,2.67 -0.67,5.33 -1,8 h -38 v -3 q 13.005,-10.995 26,-22 c 1.37,-1.53 1.25,-3.47 3,-5 a 60.68,60.68 0 0 0 -1,-12 c -1.57,-0.92 -4.49,-3.47 -6,-4 -6.91,-2.43 -13.84,3.37 -15,7 q 1.005,5.505 2,11 c -1,0.33 -2,0.67 -3,1 v 1 c -1.4,0.23 0.27,-0.37 -1,-1 -4.23,-2.35 -6.06,-6.24 -6,-13 h 1 v -2 h 1 v -2 c 1.33,-1 2.67,-2 4,-3 v -1 c 7.73,-5.14 27.63,-3.49 30,5 3.64,3.1 3.73,10.57 1,15 -0.67,0.33 -1.33,0.67 -2,1 v 2 h -1 c -1,1.33 -2,2.67 -3,4 h -2 c -0.67,1 -1.33,2 -2,3 h -2 c -0.67,1 -1.33,2 -2,3 h -2 c -0.67,1 -1.33,2 -2,3 h -2 c -1,1.33 -2,2.67 -3,4 z m 131,-42 h 31 c -0.33,2.67 -0.67,5.33 -1,8 h -26 c 0.09,4.29 0.08,9.15 -1,12 h 2 c 4.58,-5.46 11.83,-2.8 19,-2 2.02,2.99 0.94,0.46 3,2 1,1.33 2,2.67 3,4 h 1 v 2 h 1 v 2 h 1 v 3 h 1 v 6 h -1 c -0.33,1.67 -0.67,3.33 -1,5 -2,1.67 -4,3.33 -6,5 v 1 h -2 v 1 c -1.33,0.33 -2.67,0.67 -4,1 v 1 h -5 v 1 h -5 q -4.995,-1.5 -10,-3 c -2.18,-3.65 -3.97,-3.49 -4,-10 h 4 c 1.75,4.09 4.23,7.77 10,8 2.66,2.49 7.07,-0.32 10,-1 1.21,-2.13 2.25,-2.18 3,-5 4.17,-3.97 0.98,-11.56 0,-16 a 21.939,21.939 0 0 1 -5,-4 c -9.14,-0.29 -14.55,1.75 -16,9 h -5 z m 77,0 h 28 v 2 c -2,0.33 -4,0.67 -6,1 v 1 h -1 v 7 c 2.03,2.1 7.2,18.06 8,22 h 2 c 0.35,-4.35 2.65,-7.67 4,-11 v -3 h 1 v -2 h 1 c 0.33,-2 0.67,-4 1,-6 h 1 v -2 h 1 v -3 h 1 v -3 h 1 c 0.33,-1 0.67,-2 1,-3 2.01,0.57 0.86,-0.12 2,1 h 1 c 0.33,2 0.67,4 1,6 h 1 v 2 h 1 v 3 h 1 c 0.33,2 0.67,4 1,6 h 1 v 3 h 1 v 2 h 1 v 3 c 0.75,1.87 2.14,4.92 3,7 h 1 v -1 h 1 c 0.33,-1.67 0.67,-3.33 1,-5 h 1 v -3 h 1 v -3 c 2.22,-5.62 4.85,-8.96 5,-17 -2.33,-0.67 -4.67,-1.33 -7,-2 v -2 h 22 v 2 c -2.67,0.67 -5.33,1.33 -8,2 -1.05,2.5 -2.89,4.87 -4,7 v 2 h -1 c -0.67,3 -1.33,6 -2,9 h -1 v 3 h -1 v 2 h -1 c -0.33,2 -0.67,4 -1,6 h -1 l -6,18 h -3 c -0.29,-3.9 -1.91,-6.25 -3,-9 q -4.005,-12.495 -8,-25 h -1 v 1 h -1 c -0.33,2 -0.67,4 -1,6 h -1 v 2 h -1 v 3 h -1 v 3 h -1 v 2 h -1 v 3 h -1 c -0.33,2 -0.67,4 -1,6 h -1 a 23.349,23.349 0 0 0 -2,8 h -3 v -1 h -1 c -0.33,-2 -0.67,-4 -1,-6 h -1 v -3 h -1 v -3 h -1 v -2 h -1 v -3 h -1 v -3 h -1 v -3 h -1 v -3 h -1 c -0.33,-2 -0.67,-4 -1,-6 h -1 v -2 h -1 v -3 h -1 c -2.3,-5.6 -1.11,-9.64 -9,-10 v -1 h -3 z m 89,0 h 29 v 2 c -2.33,0.33 -4.67,0.67 -7,1 a 13.428,13.428 0 0 1 -3,4 v 27 c 0,3.74 -0.58,8.68 1,11 h 1 c 3.2,3.65 1.04,0.45 5,2 v 1 h 3 v 1 a 23.99,23.99 0 0 0 -4,1 v -1 h -11 c -1.39,0.24 0.41,1.07 -1,1 v -1 h -2 c -3.62,-0.21 -8.95,0.81 -11,-1 h 2 v -1 h 4 c 0.67,-1 1.33,-2 2,-3 h 1 v -38 c -1.14,-1.14 -0.4,0 -1,-2 -3.14,-0.58 -4.46,-1.62 -8,-2 z m 46,0 h 39 v 4 c -3.82,2.54 -5.41,8.12 -8,12 -0.67,0.33 -1.33,0.67 -2,1 v 2 c -1,0.67 -2,1.33 -3,2 v 2 c -0.67,0.33 -1.33,0.67 -2,1 -0.33,1 -0.67,2 -1,3 h -1 v 2 c -0.67,0.33 -1.33,0.67 -2,1 v 2 c -0.67,0.33 -1.33,0.67 -2,1 v 2 c -1,0.67 -2,1.33 -3,2 v 2 c -0.67,0.33 -1.33,0.67 -2,1 v 2 h -1 c -0.92,1.36 -0.7,1.76 -1,4 h 20 v -1 c 2,-0.33 4,-0.67 6,-1 1,-2.67 2,-5.33 3,-8 h 1 v 13 c -8.13,2.99 -32.11,1.05 -43,1 v -4 c 3.82,-2.53 5.41,-8.12 8,-12 h 1 c 0.33,-1 0.67,-2 1,-3 0.67,-0.33 1.33,-0.67 2,-1 v -2 c 1,-0.67 2,-1.33 3,-2 v -2 c 0.67,-0.33 1.33,-0.67 2,-1 0.33,-1 0.67,-2 1,-3 h 1 v -2 c 0.67,-0.33 1.33,-0.67 2,-1 v -2 c 0.67,-0.33 1.33,-0.67 2,-1 v -2 c 0.67,-0.33 1.33,-0.67 2,-1 v -2 h 1 c 1.39,-1.77 1.58,-1.99 2,-5 a 102.765,102.765 0 0 0 -23,2 c -1,2.67 -2,5.33 -3,8 h -1 v -11 h 1 z m 121,0 c 13.82,-0.35 40.2,-1.84 43,8 2,1.67 2.7,4.67 3,8 -1.3,1.25 -2.6,4.87 -3,7 a 7.8,7.8 0 0 0 -4,2 v 1 c -2.3,0.67 -4.7,1.33 -7,2 v 2 c 8.4,4.93 10.1,16.3 23,17 v 2 h -17 c -1,-1.67 -2,-3.33 -3,-5 -0.7,-0.33 -1.3,-0.67 -2,-1 v -2 c -1,-0.67 -2,-1.33 -3,-2 -0.3,-1 -0.7,-2 -1,-3 -1.3,-1 -2.7,-2 -4,-3 -0.7,-1.33 -1.3,-2.67 -2,-4 h -4 c -0.1,6.36 -1.07,15.77 3,18 2.3,0.33 4.7,0.67 7,1 v 1 h -5 v 1 h -1 v -1 h -4 c -4.95,-0.07 -16.09,1.59 -19,-1 h 2 v -1 h 4 c 0.67,-1 1.33,-2 2,-3 h 1 v -37 c -3.88,-3.3 -1.03,-4.04 -9,-4 z m 63,0 c 13.7,-0.18 36.8,-1.04 45,4 0.3,0.67 0.7,1.33 1,2 h 2 c 0.3,0.67 0.7,1.33 1,2 1.3,1 2.7,2 4,3 v 2 h 1 c 1.2,2.04 0,2.23 2,4 0.2,8.61 1.4,11.09 -2,18 v 2 h -1 v 2 c -1,0.67 -2,1.33 -3,2 -0.7,1 -1.3,2 -2,3 h -2 c -0.3,0.67 -0.7,1.33 -1,2 -1.7,0.33 -3.3,0.67 -5,1 -9.9,3.93 -26,3.16 -40,3 v -3 h 6 a 18.3,18.3 0 0 1 3,-3 v -37 c -3.9,-3.3 -1,-4.04 -9,-4 z m -592,5 c -3.51,-0.84 -5.99,-3.11 -9,-4 -2.45,-0.73 -3.77,1.06 -5,1 v -1 h -1 v 1 h -1 v -1 c -1.94,0.04 -2,1 -2,1 -0.67,-0.33 -1.33,-0.67 -2,-1 v 1 c -3.54,0.72 -12.4,5.66 -14,8 v 2 h -1 v 2 c -0.67,0.33 -1.33,0.67 -2,1 v 2 h -1 c -0.19,5.38 -1.46,12.28 0,16 h 1 v 2 h 1 v 3 c 0.67,0.33 1.33,0.67 2,1 v 2 c 1,0.67 2,1.33 3,2 v 1 h 2 c 0.67,1 1.33,2 2,3 9.85,5.47 30.47,1.08 33,-9 3.46,-2.96 1.73,-5.89 3,-11 h 1 a 2.731,2.731 0 0 0 -1,-3 v -1 h 1 v -1 h -1 c 0.33,-0.67 0.67,-1.33 1,-2 h -1 c -0.33,-2 -0.67,-4 -1,-6 -1.33,-1 -2.67,-2 -4,-3 v -2 c -0.67,-0.33 -1.33,-0.67 -2,-1 v -2 c -0.67,0.33 -1.33,0.67 -2,1 z m 101,-3 v 1 h -3 v 1 h -1 c -1.33,2.67 -2.67,5.33 -4,8 -3,9 -0.13,31.62 5,35 3.33,0.33 6.67,0.67 10,1 2.08,-3.58 4.66,-4.35 5,-10 2.79,-2.86 2.8,-22.3 1,-27 h -1 c -0.67,-2 -1.33,-4 -2,-6 a 13.428,13.428 0 0 1 -4,-3 z m 447,2 v 21 c 6.2,0.1 9.6,-1.08 14,-2 1.8,-3.86 3,-5.77 3,-12 -1.4,-1.17 -1.5,-1.82 -2,-4 -5,-2.27 -7,-3.03 -15,-3 z m 62,0 c -0.1,13.91 0.2,31.59 1,41 6,1.12 12,0.59 18,0 v -2 c 2.7,-0.5 3.8,-1.07 5,-3 7.9,-7.19 4.5,-31.6 -5,-34 -3.1,-3.16 -12.8,-2.11 -19,-2 z m -631,33 c 2.96,0.63 2.47,1.77 3,2 3.11,1.34 6.86,-0.95 9,1 h -1 c -1.59,1.48 -5.89,1.09 -9,1 -1.17,-1.36 -1.83,-1.53 -4,-2 v -2 h -3 c 0.33,-0.67 0.67,-1.33 1,-2 -0.67,0.33 -1.33,0.67 -2,1 -0.33,-1.33 -0.67,-2.67 -1,-4 -0.67,-0.33 -1.33,-0.67 -2,-1 v -11 h 1 c 1.33,-5.92 7.39,-10.1 15,-10 v -1 c 2,0.67 4,1.33 6,2 v 1 h -2 c -2.62,-2.53 -7.69,-0.01 -10,1 -1.13,2.41 -1.84,4.28 -3,7 h -1 v 4 h 1 c -0.33,2 -0.67,4 -1,6 h 1 v 2 h 1 c 0.33,1.67 0.67,3.33 1,5 z m 19,-24 v 8 h -1 v -2 h -1 v -3 h -1 a 8.178,8.178 0 0 1 -2,-4 h 1 v 1 z m 481,17 h 15 c -0.51,-6.96 -4.51,-11.69 -7,-17 h -1 v 1 c -2.28,1.98 -6.59,11.9 -7,16 z m -482,7 h -3 v -1 c 1.3,-1.05 1.49,-2.04 3,-3 0.84,-1.13 -0.13,-0.15 1,-1 v 7 h -1 z m -3,2 h -2 c 0.84,-1.13 -0.13,-0.15 1,-1 v -1 c 1.14,1.14 0.4,0 1,2 z" />
</svg>
