<svg id="Groupe_Purple_Rocks" data-name="Groupe Purple Rocks" xmlns="http://www.w3.org/2000/svg" width="1040" height="1320" viewBox="0 0 10200 6600">
  <g id="trackless_sea_groupe">
    <g id="trackless_sea">
      <path id="trackless_sea-2" data-name="trackless_sea" class="cls-5" d="M5401,5877c-1.67.33-3.33,0.67-5,1v1h-1v5c3.41,2.9,4.03,9.46,6,14h1v2h1q1.005,6,2,12h1c2.53,8.88-4.27,29.68-7,34-0.67.33-1.33,0.67-2,1-1.65,2.49-1.51,4.39-4,6-1.67,1.6-7.91,3.3-12,2v-1c-4.89-1.78-16.13-8.85-24-6v1c-2,.67-4,1.33-6,2v1h-2c-0.33.67-.67,1.33-1,2h-2c-1,1.33-2,2.67-3,4h-2c-1,1.33-2,2.67-3,4-1.33.33-2.67,0.67-4,1v1l-31,6v1h-4v1c-1.33.33-2.67,0.67-4,1-0.67,1-1.33,2-2,3-6.33,4.48-11.61,9.62-17,15-1.33,1.67-2.67,3.33-4,5h-2q-3.495,4.005-7,8c-1,.33-2,0.67-3,1-0.67,1-1.33,2-2,3h-2c-0.33.67-.67,1.33-1,2-1,.33-2,0.67-3,1v1c-6.4,4.08-14.99,6.69-23,9h-14v-1h-5v-1h-3v-1h-3v-1c-2-.67-4-1.33-6-2v-1h-2v-1h-2v-1h-2v-1h-2v-1h-2v-1h-2v-1c-1.33-.33-2.67-0.67-4-1v-1c-1.33-.33-2.67-0.67-4-1v-1h-3v-1h-6v1h-5c-4.45,1.35-17.53,5.13-22,3-0.33-.67-0.67-1.33-1-2-1.33-.33-2.67-0.67-4-1-0.33-.67-0.67-1.33-1-2h-2v-1h-2c-0.33-.67-0.67-1.33-1-2h-2c-0.67-1-1.33-2-2-3h-2c-0.33-.67-0.67-1.33-1-2h-2c-0.67-1-1.33-2-2-3h-2c-0.67-1-1.33-2-2-3h-2c-1-1.33-2-2.67-3-4h-2c-1.33-1.67-2.67-3.33-4-5h-2c-1.33-1.67-2.67-3.33-4-5h-2c-1.33-1.67-2.67-3.33-4-5h-2c-1.33-1.67-2.67-3.33-4-5h-2c-1-1.33-2-2.67-3-4h-2c-0.33-.67-0.67-1.33-1-2h-1c-0.33-.67-0.67-1.33-1-2h-2c-0.67-1-1.33-2-2-3h-2c-0.33-.67-0.67-1.33-1-2h-2c-0.67-1-1.33-2-2-3h-2c-0.33-.67-0.67-1.33-1-2q-7.5-4.005-15-8l-37,3c-0.67-1-1.33-2-2-3h-1c-2-3.16-2.02-9.81-2-15,1-.67,2-1.33,3-2v-1l9-3c0.67-1,1.33-2,2-3h2c0.33-.67.67-1.33,1-2h1v-2c1-.67,2-1.33,3-2,0.67-2,1.33-4,2-6h1v-3c3.42-9.12,4.02-23.77,1-34-0.33-3.67-.67-7.33-1-11q-6-19.995-12-40h-1v-2h-1c-0.33-2-.67-4-1-6h-1v-2h-1v-3h-1c-0.33-1.33-.67-2.67-1-4h-1c-0.33-1.67-.67-3.33-1-5h-1v-3h-1c-1.88-3.82-1.43-6.78-6-8-3.66-3.64-16.49-1.78-21,0v1h-3v1h-2v1h-2c-0.33.67-.67,1.33-1,2h-2v1c-1,.33-2,0.67-3,1-0.33.67-.67,1.33-1,2h-2c-0.67,1-1.33,2-2,3h-2c-1.67,2-3.33,4-5,6h-2q-3,3.495-6,7h-1c-2.73,4.89,1.11,14.46-1,20-1.81,4.76-19.03,9.51-28,7v-1c-3.33-.33-6.67-0.67-10-1v-1c-2-.33-4-0.67-6-1v-1h-3v-1h-3v-1h-3v-1h-3v-1h-3v-1h-3v-1c-2.33-.33-4.67-0.67-7-1v-1q-6-.495-12-1v-1c-4.67-1.3-12.11,1.06-15,2-2.67.33-5.33,0.67-8,1v1h-2v1c-2,.33-4,0.67-6,1v1c-1.33.33-2.67,0.67-4,1v1h-3v1c-1.33.33-2.67,0.67-4,1v1h-3v1c-2,.67-4,1.33-6,2v1h-2v1h-2v1h-2v1c-1.33.33-2.67,0.67-4,1v1c-1.33.33-2.67,0.67-4,1v1c-1.33.33-2.67,0.67-4,1v1h-2v1h-2v1h-2v1h-2v1h-2v1c-1.33.33-2.67,0.67-4,1-0.33.67-.67,1.33-1,2h-2v1h-2v1h-2v1h-2v1h-2v1c-1.33.33-2.67,0.67-4,1-0.33.67-.67,1.33-1,2h-2v1h-2v1h-2v1h-2v1h-2v1h-2v1h-2v1c-1.33.33-2.67,0.67-4,1v1h-2v1h-2v1h-2v1h-2v1c-1.33.33-2.67,0.67-4,1v1h-2v1h-3v1c-1.33.33-2.67,0.67-4,1v1c-2,.33-4,0.67-6,1v1h-3v1h-3v1h-3v1c-2.33.33-4.67,0.67-7,1v1h-4v1h-5c-17.33,5.58-39.41,6.55-57,12l-18,3v1c-2.33.33-4.67,0.67-7,1v1h-3v1h-3v1h-2v1h-3v1h-2v1h-3v1c-1.33.33-2.67,0.67-4,1v1c-1.33.33-2.67,0.67-4,1-0.33.67-.67,1.33-1,2-1.33.33-2.67,0.67-4,1-0.33.67-.67,1.33-1,2h-2c-0.67,1-1.33,2-2,3h-2q-3.495,4.005-7,8c-1.33,1-2.67,2-4,3-8.18,11.4-11.28,27.12-16,42-0.33,3.33-.67,6.67-1,10h-1v4h-1v5h-1v4h-1v4h-1c-0.67,3-1.33,6-2,9-1.41,3.55-3.49,6.19-4,11h1v3c1.33,1,2.67,2,4,3v1h2c0.67,1,1.33,2,2,3,1.33,0.33,2.67.67,4,1,11.95,6.44,23.44,7.93,42,8,2.8-5.21,6.87-9.1,11-13,0.33-.67.67-1.33,1-2h2c0.67-1,1.33-2,2-3h2v-1h2v-1h2v-1h2v-1h2v-1h2v-1h3v-1h2v-1h3v-1h4v-1h3v-1h4v-1h6v-1q7.995-1.005,16-2h10v-1c4.76-1.32,23.56.03,27,1h14v1h8v1h6v1h6v1h5v1h4v1h4v1h3v1h3v1h3v1h2v1h3v1h2v1h2c0.67,1,1.33,2,2,3h2v1c1,0.67,2,1.33,3,2,1.15,1.66.02,2.27,2,4-0.57,2.01.12,0.87-1,2-1.4,4.63-2.33,3.04-6,5v1h-2v1h-3v1h-3v1h-2v1h-3v1h-4v1h-3v1h-3v1h-3v1h-3v1h-3v1h-3v1c-2,.33-4,0.67-6,1v1h-2v1h-3v1c-2,.67-4,1.33-6,2v1c-2,.67-4,1.33-6,2v1c-1,.33-2,0.67-3,1-0.33.67-.67,1.33-1,2h-2c-1,1.33-2,2.67-3,4h-2v1c-1,.67-2,1.33-3,2-17.47,24.18-8.83,70.43,2,95v3h1c0.33,1.33.67,2.67,1,4h1c0.33,1.33.67,2.67,1,4,0.67,0.33,1.33.67,2,1v2c0.67,0.33,1.33.67,2,1,0.33,1.33.67,2.67,1,4h1c1.37,3.86-1.35,7.12-2,9v4h-1v4h-1v7h-1c-1.84,6.57.68,19.67,2,24v5h1c0.67,3,1.33,6,2,9h1v2h1c0.67,2,1.33,4,2,6,0.67,0.33,1.33.67,2,1v2c0.67,0.33,1.33.67,2,1v2c1,0.67,2,1.33,3,2v1h2c0.67,1,1.33,2,2,3,2,0.67,4,1.33,6,2v1c2.33,0.33,4.67.67,7,1v1c5.42,1.59,13.4-2.67,15-5,0.33-1.33.67-2.67,1-4,0.67-.33,1.33-0.67,2-1v-2h1v-2h1v-2h1v-2c0.67-.33,1.33-0.67,2-1,0.67-2,1.33-4,2-6,0.67-.33,1.33-0.67,2-1,0.33-1.33.67-2.67,1-4,0.67-.33,1.33-0.67,2-1,0.33-1.33.67-2.67,1-4h1c0.33-1,.67-2,1-3,0.67-.33,1.33-0.67,2-1,0.33-1.33.67-2.67,1-4,0.67-.33,1.33-0.67,2-1v-2c0.67-.33,1.33-0.67,2-1v-2c0.67-.33,1.33-0.67,2-1v-2c0.67-.33,1.33-0.67,2-1v-2c0.67-.33,1.33-0.67,2-1v-2c0.67-.33,1.33-0.67,2-1v-2c1-.67,2-1.33,3-2v-2c1-.67,2-1.33,3-2v-2c1-.67,2-1.33,3-2v-2c1-.67,2-1.33,3-2v-2c1-.67,2-1.33,3-2v-1c0.67-.33,1.33-0.67,2-1v-2q3.495-3,7-6v-2c1.67-1.33,3.33-2.67,5-4q4.5-4.995,9-10h2q3-3.495,6-7h2c1-1.33,2-2.67,3-4h2c0.67-1,1.33-2,2-3h2c0.33-.67.67-1.33,1-2,1-.33,2-0.67,3-1v-1h2c0.33-.67.67-1.33,1-2,1.33-.33,2.67-0.67,4-1,0.33-.67.67-1.33,1-2h2v-1h2v-1h2v-1h2v-1h2v-1h2v-1c1.33-.33,2.67-0.67,4-1v-1c1.67-.33,3.33-0.67,5-1v-1c3-.67,6-1.33,9-2v-1h4v-1c3-.33,6-0.67,9-1,2.64-.79,11.6-3.61,16-2v1c1.33,0.33,2.67.67,4,1q4.005,4.5,8,9h2c1.67,2,3.33,4,5,6h2c1,1.33,2,2.67,3,4h2c0.67,1,1.33,2,2,3h2c0.67,1,1.33,2,2,3h2c0.67,1,1.33,2,2,3h2c0.33,0.67.67,1.33,1,2h2c0.67,1,1.33,2,2,3h2c0.33,0.67.67,1.33,1,2h2c0.33,0.67.67,1.33,1,2,1,0.33,2,.67,3,1v1c1.33,0.33,2.67.67,4,1v1c1,0.33,2,.67,3,1,0.33,0.67.67,1.33,1,2,1.33,0.33,2.67.67,4,1,0.33,0.67.67,1.33,1,2,1.33,0.33,2.67.67,4,1,0.33,0.67.67,1.33,1,2,2,0.67,4,1.33,6,2,0.33,0.67.67,1.33,1,2h2v1h2v1h2v1h2c0.33,0.67.67,1.33,1,2,1.33,0.33,2.67.67,4,1v1c2,0.67,4,1.33,6,2v1h3v1c1.33,0.33,2.67.67,4,1v1c1.67,0.33,3.33.67,5,1,7.29,3.27,14.56,7.73,25,8,0.33-1,.67-2,1-3h1v-6h1v-17h1v-5h1v-2h1v-3c2-1.67,4-3.33,6-5h22v1h3v1c1.33,0.33,2.67.67,4,1v1h2c0.33,0.67.67,1.33,1,2,1.67,0.33,3.33.67,5,1v1c1.33,0.33,2.67.67,4,1v1h3v1h3v1h4v1h5v1h10v1h5v-1h10v-1h5v-1h4v-1h4v-1c3.33-.67,6.67-1.33,10-2v-1h2v-1c2-.33,4-0.67,6-1v-1h2v-1h3v-1c1.33-.33,2.67-0.67,4-1v-1h3v-1h2v-1c1.33-.33,2.67-0.67,4-1v-1h3v-1c1.33-.33,2.67-0.67,4-1v-1h3v-1c1.33-.33,2.67-0.67,4-1v-1h3v-1h2v-1h3v-1h2v-1h3v-1h2v-1c2-.33,4-0.67,6-1,6.8-2.68,16.09-5.68,25-6,4.11-.15,11.97-2.57,15,0,5.24,1.42,5.85,5.75,9,9q10.005,9.495,20,19h2c0.33,0.67.67,1.33,1,2,1.33,0.33,2.67.67,4,1v1h2v1h9c1.81-2.15,4.58-2.39,7-4,0.33-.67.67-1.33,1-2h2c1-1.33,2-2.67,3-4,0.67-.33,1.33-0.67,2-1v-2c1.67-1.33,3.33-2.67,5-4v-2c1-.67,2-1.33,3-2v-2c0.67-.33,1.33-0.67,2-1v-2c0.67-.33,1.33-0.67,2-1,0.33-1,.67-2,1-3h1c0.33-1.33.67-2.67,1-4h1c0.33-1,.67-2,1-3,0.67-.33,1.33-0.67,2-1v-2h1v-2c0.67-.33,1.33-0.67,2-1,0.33-1.33.67-2.67,1-4,0.67-.33,1.33-0.67,2-1,0.33-1.33.67-2.67,1-4,0.67-.33,1.33-0.67,2-1,0.33-1.33.67-2.67,1-4,0.67-.33,1.33-0.67,2-1,0.33-1.33.67-2.67,1-4,0.67-.33,1.33-0.67,2-1,0.33-1.33.67-2.67,1-4h1c0.33-1,.67-2,1-3,0.67-.33,1.33-0.67,2-1,0.33-1.33.67-2.67,1-4,0.67-.33,1.33-0.67,2-1v-2h1c0.33-1,.67-2,1-3,0.67-.33,1.33-0.67,2-1v-2c1-.67,2-1.33,3-2v-2c1-.67,2-1.33,3-2v-2c1.33-1,2.67-2,4-3v-2c1.33-1,2.67-2,4-3q3.495-4.005,7-8h2c0.33-.67.67-1.33,1-2h2c0.33-.67.67-1.33,1-2,2-.67,4-1.33,6-2v-1h2v-1c5.39-2.32,25.4-3.12,32-1v1h4v1h3v1h3v1h3v1h3v1c2,0.67,4,1.33,6,2v1h2v1h2v1h2v1h2v1h2v1h2v1h2c0.33,0.67.67,1.33,1,2,1.33,0.33,2.67.67,4,1,0.33,0.67.67,1.33,1,2h2c0.33,0.67.67,1.33,1,2h2c0.33,0.67.67,1.33,1,2h2c0.33,0.67.67,1.33,1,2h2c0.33,0.67.67,1.33,1,2,1,0.33,2,.67,3,1,0.67,1,1.33,2,2,3h2c1,1.33,2,2.67,3,4h2q3,3.495,6,7c1.67,1.33,3.33,2.67,5,4v3h1v4h1v6c3.15,10.55,3.86,24.31,7,35q1.005,7.995,2,16h1v2q3,3.495,6,7h2c0.67,1,1.33,2,2,3h2c0.67,1,1.33,2,2,3,6.72,4.77,11.83,8.57,12,20h-1v2c-1,.67-2,1.33-3,2v1h-2c-0.67,1-1.33,2-2,3h-2c-0.67,1-1.33,2-2,3h-2c-1.33,1.67-2.67,3.33-4,5h-2q-3,3.495-6,7c-1,.67-2,1.33-3,2v2c-2,1.67-4,3.33-6,5v2c-1,.67-2,1.33-3,2v2c-0.67.33-1.33,0.67-2,1v2c-0.67.33-1.33,0.67-2,1v2c-0.67.33-1.33,0.67-2,1-0.33,1.33-.67,2.67-1,4h-1c-0.67,2-1.33,4-2,6h-1v3h-1v4h-1v5h-1c-1.2,4.33,2.01,10.62,3,13v3c0.67,0.33,1.33.67,2,1,1.84,2.64-1.07,1.8,3,3v1c1.76,0.96,8.96-1.51,10-2v-1h3v-1c1.33-.33,2.67-0.67,4-1v-1h2c0.33-.67.67-1.33,1-2h2q5.505-6,11-12h4c2.52,11.91-.81,21.92-5,30-0.33,1.67-.67,3.33-1,5-0.67.33-1.33,0.67-2,1-1.81,2.58,1.09,1.87-3,3-2.77,2.51-5.91.79-10,2v1h-6v1h-7v1c-1.67.33-3.33,0.67-5,1q-2.505,4.005-5,8c-0.33,1.67-.67,3.33-1,5h-1v2h-1v3h-1c-0.33,1.33-.67,2.67-1,4h-1v3h-1v2h-1c-0.33,2-.67,4-1,6h-1v6h-1q1.005,7.995,2,16h1v7a54.11,54.11,0,0,1,1,23c-1,.33-2,0.67-3,1-2.81,2.44-13.23,1-18,1h-51q-97.485.495-195,1H1436q-320.97-1.005-642-2H619v-1H583c-5.807-1.63-15.562-1-23-1-12.806,0-34.54-1.92-45,1H456c-11.155,3.08-34.416,1-48,1-13.235,0-36.2,2.05-47-1-6.3-1.78-16.831.74-23-1H323v-1H312v-1h-9v-1q-6.5-.495-13-1v-1h-6v-1h-5v-1h-4v-1h-4v-1h-3v-1h-3v-1h-3v-1h-3v-1c-4.532-2.24-6.621-1.34-7-8,1.962-.99,4.072-3.15,6-4h3v-1q7.5-.495,15-1v-1h10v-1h7v-1h5v-1h3v-1h3v-1h3v-1h2c0.333-.67.667-1.33,1-2,2.579-1.85,1.842,1.08,3-3-1.135-.84-0.145.13-1-1-3.831.72-8.653,2.04-12,3-4.735,1.36-14.81.14-18-1-2-.33-4-0.67-6-1v-1c-1.333-.33-2.667-0.67-4-1l-2-3c-1-.33-2-0.67-3-1v-2c-1-.67-2-1.33-3-2v-2c-0.667-.33-1.333-0.67-2-1-0.333-1.33-.667-2.67-1-4h-1q-0.5-3-1-6h-1v-5h-1v-25h1c0.917-3.29-.324-8.11-1-10h-2c-1.333,1.67-2.667,3.33-4,5h-1q-2,5.505-4,11v34l-3,9c-0.667.33-1.333,0.67-2,1v2h-1c-1.364,1.49-.5,1.33-3,2v1c-0.661.42-3.237,0.62-4,1v-1c-1.333-.33-2.667-0.67-4-1-0.761-3.1-2.921-4.56-4-7-2.031-4.6-6.156-26.21-4-34h1v-9h1v-9h1v-10h1v-16c-5.777-19.23-8.383-41.66-14-61V5934c0-13.03-1.985-35.36,1-46V4852c-2.336-8.35-1-21.9-1-32V1891c-1.625-5.81-1-15.56-1-23V1682q-1-374.955-2-750V802c-2.653-9.479-1-24.724-1-36V704h-1V618c0-12.163,1.889-28.672-1-39q0.5-37,1-74V462h1v-3c0.441-9.946-1.329-22.752,1-31V414q0.5-15.5,1-31h1V367h1V353h1V342h1V331h1v-9h1q0.5-8,1-16h1v-6h1v-6h1v-6h1v-4h1q0.5-4.5,1-9h1v-3h1v-4c0.523-1.431,5.149-10.575,6-11h6v1l3,1,1,2,3,2v9c-1.8,1.92-2.013,12.578-2,17,0.033,11.4,5.652,29.963,15,31-0.2-5.736-1.778-8.862-3-13-1.249-4.228.1-16.206,1-19q0.5-3.5,1-7h1v-2h1v-2l2-1v-2l2-1v-2l3-2v-1h2l2-3h2v-1l6-2v-1l6-1v-1h6v-1l23,2v-3l-3-1v-1h-2v-1h-3v-1h-2v-1l-7-1v-1h-5v-1h-5v-1h-7v-1h-7v-1l-10-1v-1l-4-1v-1h-2q-0.5-1.5-1-3h-1v-2l3-2v-1h2v-1h4v-1h6v-1h11c3.641-1.029,13.828-2.43,19-1v1h23c8.235,0,15.709-.224,22-2h11v-1h10v-1h12v-1h12v-1l40-2v-1l23-1h11v-1c5.775-1.622,14.846.447,20-1,6.047-1.7,16.1.655,22-1h27v-1h33v-1h47c9.761-2.734,25.43-1,37-1h76l250,1h53c8.91,0,20.78-1.02,28,1H2470c10.68,0,25.09-1.5,34,1h13c12.26,0,30.8-1.861,41,1l160,2v1h17c15.94,0,35-1.662,48,2h11v1h10v1h11v1h11v1h12v1h12v1h14v1l19,1h11v1h18c5.9,1.652,15.94-.694,22,1,7.6,2.126,19.71.782,29,1h4v1h35l26-1c7.74-.025,17.9.71,24-1h18v-1l37-2v-1h10v-1h9v-1h8v-1h7c1.63-.47,9.59-2.722,12-2v1c1.8,0.635,2.59.442,4,1,0.33,1,.67,2,1,3,0.67,0.333,1.33.667,2,1,0.33,1.333.67,2.667,1,4,0.67,0.333,1.33.667,2,1,0.33,1.333.67,2.667,1,4,0.67,0.333,1.33.667,2,1v2h1v2c0.67,0.333,1.33.667,2,1,0.33,1.333.67,2.667,1,4,0.67,0.333,1.33.667,2,1,0.33,1.333.67,2.667,1,4,0.67,0.333,1.33.667,2,1,0.33,1.333.67,2.667,1,4,0.67,0.333,1.33.667,2,1,0.33,1.333.67,2.667,1,4,0.67,0.333,1.33.667,2,1,0.33,1.333.67,2.667,1,4,0.67,0.333,1.33.667,2,1,0.33,1.333.67,2.667,1,4,0.67,0.333,1.33.667,2,1v2h1v2c0.67,0.333,1.33.667,2,1,0.33,1.333.67,2.667,1,4,0.67,0.333,1.33.667,2,1,0.67,2,1.33,4,2,6,0.67,0.333,1.33.667,2,1v2h1v2c2.89,4.553,6.47,6.731,7,14-1.08.554-1.67,1.812-2,2h-3v1c-0.67.333-1.33,0.667-2,1v2h-1c0.12,10.4,3.04,19.5,6,27,0.33,2,.67,4,1,6h1c0.67,2,1.33,4,2,6h1v2h1c0.67,2,1.33,4,2,6,0.67,0.333,1.33.667,2,1v2c0.67,0.333,1.33.667,2,1v2l3,2v2c1.67,1.333,3.33,2.667,5,4v2c1.33,1,2.67,2,4,3,0.33,0.667.67,1.333,1,2h2c1.67,2,3.33,4,5,6l3,1c0.33,0.667.67,1.333,1,2h2c0.33,0.667.67,1.333,1,2l3,1v1h2c0.33,0.667.67,1.333,1,2h2v1h2v1h2v1h2v1h2c0.33,0.667.67,1.333,1,2h2v1h2v1h3v1h2v1l4,1v1l5,1v1l9,2v1h3v1h3v1h3v1h3v1l7,1v1h4v1l12,2v1l13,2v1l10,1c11.24,3.514,25.62,4.564,37,8h6v1h5v1h6c9.11,2.775,21.11,4.154,30,7h5l39,11c0.67,1,1.33,2,2,3h1v2h1v6h1c1.37,4.847-.01,18.581-1,22q-0.495,7-1,14h-1q-1.005,6-2,12h-1c-0.67,3-1.33,6-2,9h-1v2h-1v3h-1v2h-1v3h-1c-0.67,2-1.33,4-2,6h-1v2h-1v2h-1v2h-1v2h-1v2c-0.67.333-1.33,0.667-2,1-0.33,1.333-.67,2.667-1,4-0.67.333-1.33,0.667-2,1-0.33,1.333-.67,2.667-1,4-0.67.333-1.33,0.667-2,1-0.33,1.333-.67,2.667-1,4h-1c-0.33,1-.67,2-1,3-0.67.333-1.33,0.667-2,1v2c-0.67.333-1.33,0.667-2,1v2c-0.67.333-1.33,0.667-2,1v2h-1c-0.33,1-.67,2-1,3-0.67.333-1.33,0.667-2,1v2c-0.67.333-1.33,0.667-2,1v2c-0.67.333-1.33,0.667-2,1v2c-0.67.333-1.33,0.667-2,1v2c-0.67.333-1.33,0.667-2,1v2c-0.67.333-1.33,0.667-2,1v2c-0.67.333-1.33,0.667-2,1v2c-0.67.333-1.33,0.667-2,1v2c-0.67.333-1.33,0.667-2,1-0.33,1.333-.67,2.667-1,4-0.67.333-1.33,0.667-2,1-0.33,1.333-.67,2.667-1,4-0.67.333-1.33,0.667-2,1-0.67,2-1.33,4-2,6h-1v2h-1v2h-1c-0.67,2-1.33,4-2,6h-1v3h-1v2h-1c-0.33,2.333-.67,4.667-1,7-4.26,12.036-5.25,25.062-1,38v4q4.995,11,10,22c0.67,0.333,1.33.667,2,1v2h1c0.33,1,.67,2,1,3,0.67,0.333,1.33.667,2,1v2l3,2v2c1.33,1,2.67,2,4,3v2q3.495,3,7,6v2l3,2,6,7h2l6,7h2c1.33,1.667,2.67,3.333,4,5h2c0.67,1,1.33,2,2,3h2c0.67,1,1.33,2,2,3h2c0.67,1,1.33,2,2,3h2c0.33,0.667.67,1.333,1,2h2c0.33,0.667.67,1.333,1,2h2c0.33,0.667.67,1.333,1,2h2c0.33,0.667.67,1.333,1,2h2c0.33,0.667.67,1.333,1,2l4,1c0.33,0.667.67,1.333,1,2l4,1c0.33,0.667.67,1.333,1,2h2v1h2v1h2v1h2c0.33,0.667.67,1.333,1,2h2v1h2v1h2v1h2v1h2v1h2v1h2v1l6,2v1h3v1h2v1l4,1v1h3v1l4,1v1h3v1h2v1l6,1v1h2v1l9,2v1h2v1l7,1v1h3v1h3v1h3v1l7,1v1l11,2v1l43,8h10l20,1v1h10l20,1v1h10l21,1v1l44,2v1l6,1v1l6,2v1h2v1h2v1l4,1c0.33,0.667.67,1.333,1,2l6,2c0.33,0.667.67,1.333,1,2h2v1h2v1l3,1c0.33,0.667.67,1.333,1,2l4,1c0.33,0.667.67,1.333,1,2h2c0.33,0.667.67,1.333,1,2h2c0.33,0.667.67,1.333,1,2h2c0.33,0.667.67,1.333,1,2h2c0.33,0.667.67,1.333,1,2h2c0.33,0.667.67,1.333,1,2h2c0.33,0.667.67,1.333,1,2h2v1l3,1c0.33,0.667.67,1.333,1,2h2c0.67,1,1.33,2,2,3h2c0.33,0.667.67,1.333,1,2h2c0.67,1,1.33,2,2,3h2c0.33,0.667.67,1.333,1,2h2c0.33,0.667.67,1.333,1,2l3,1c0.67,1,1.33,2,2,3h2c0.67,1,1.33,2,2,3h2c0.67,1,1.33,2,2,3h2c0.67,1,1.33,2,2,3h2l3,4h2c0.67,1,1.33,2,2,3h2c1.33,1.667,2.67,3.333,4,5h2c1.33,1.667,2.67,3.333,4,5h2c1.67,2,3.33,4,5,6h2q4.005,4.5,8,9c4.87,4.877,11.03,9.3,15,15v2c0.67,0.333,1.33.667,2,1,0.67,2,1.33,4,2,6h1v2h1v3h1v2h1c0.33,2,.67,4,1,6h1v3h1v3h1v3h1v3h1q1.005,6,2,12h1v5c2.02,6.43,3.05,15.35,5,22v7h1v7h1v7h1v8h1v8c3.52,12.11,2.51,28.05,6,40q0.495,6.495,1,13,4.5,19.995,9,40h1v3h1c0.33,1.67.67,3.33,1,5h1v2h1v3h1c0.33,1.33.67,2.67,1,4h1v3h1v2h1v3h1c0.33,1.33.67,2.67,1,4h1v3h1v2h1v3h1c0.33,1.33.67,2.67,1,4h1v3h1c0.33,1.33.67,2.67,1,4h1v3h1v2h1v3h1c0.33,1.33.67,2.67,1,4h1c0.33,1.67.67,3.33,1,5h1v3h1c0.33,1.33.67,2.67,1,4h1q1.5,4.995,3,10h1v2h1v3h1v2h1v3h1c0.33,1.33.67,2.67,1,4h1v3h1v2h1v3h1c0.33,1.33.67,2.67,1,4h1v3h1v2h1v3h1c0.33,1.33.67,2.67,1,4h1v3h1v2h1v3h1c0.33,1.33.67,2.67,1,4h1v3h1c0.33,1.33.67,2.67,1,4h1v3h1v2h1v3h1c0.33,1.33.67,2.67,1,4h1q1.5,4.995,3,10h1v2h1v3h1v2h1v3h1c0.33,1.33.67,2.67,1,4h1v3h1v2h1v3h1c0.33,1.33.67,2.67,1,4h1v3h1v2h1v3h1c0.33,1.33.67,2.67,1,4h1v3h1v2h1v3h1c0.33,1.33.67,2.67,1,4h1v3h1c0.33,1.33.67,2.67,1,4h1v3h1v2h1v3h1c0.33,1.33.67,2.67,1,4h1v3h1v2h1v3h1c0.33,1.33.67,2.67,1,4h1v3h1v2h1v3h1c0.33,1.33.67,2.67,1,4h1v3h1v2h1v3h1c0.33,1.33.67,2.67,1,4h1c0.33,1.67.67,3.33,1,5h1v3h1c0.33,1.33.67,2.67,1,4h1v3h1v2h1v3h1c0.33,1.33.67,2.67,1,4h1c0.33,1.67.67,3.33,1,5h1v3h1c0.33,1.33.67,2.67,1,4h1v3h1c0.33,1.33.67,2.67,1,4h1c0.33,1.67.67,3.33,1,5h1v3h1c0.33,1.33.67,2.67,1,4h1v3h1v2h1v3h1c0.33,1.33.67,2.67,1,4h1c0.33,1.67.67,3.33,1,5h1q1.005,6,2,12h1v5h1v4h1v5h1v5h1v4h1c0.33,3.33.67,6.67,1,10h1v4h1v5h1v5h1v4h1v5h1v5c3.68,11.38,5.41,25.52,9,37,0.33,3.33.67,6.67,1,10h1v4h1v5h1v5h1v4h1c0.33,3.33.67,6.67,1,10,7.08,21.94,9.47,47.71,16,70q0.495,16.5,1,33h1v16h1q0.495,10.995,1,22v10h1v16h1v17h1v15h1v4h1v4h1v3h1v3h1c0.33,1.67.67,3.33,1,5h1c0.33,1.33.67,2.67,1,4h1v2h1c0.33,1.67.67,3.33,1,5,0.67,0.33,1.33.67,2,1v2h1v2h1v2h1v2h1c0.33,1,.67,2,1,3,0.67,0.33,1.33.67,2,1,0.33,1.33.67,2.67,1,4,0.67,0.33,1.33.67,2,1v2c1,0.67,2,1.33,3,2v2c0.67,0.33,1.33.67,2,1v2c0.67,0.33,1.33.67,2,1,0.33,1,.67,2,1,3,1,0.67,2,1.33,3,2v2c1.33,1,2.67,2,4,3v2c1.67,1.33,3.33,2.67,5,4v2c1.67,1.33,3.33,2.67,5,4v2c1.67,1.33,3.33,2.67,5,4v2c2,1.67,4,3.33,6,5v2c1.67,1.33,3.33,2.67,5,4v2c1.67,1.33,3.33,2.67,5,4v2c1.33,1,2.67,2,4,3v2c1.33,1,2.67,2,4,3v2c1,0.67,2,1.33,3,2v2c0.67,0.33,1.33.67,2,1v2c1,0.67,2,1.33,3,2v2c0.67,0.33,1.33.67,2,1v2c0.67,0.33,1.33.67,2,1,0.33,1,.67,2,1,3h1c0.33,1.33.67,2.67,1,4,0.67,0.33,1.33.67,2,1,0.67,2,1.33,4,2,6,0.67,0.33,1.33.67,2,1v2h1c0.33,1.33.67,2.67,1,4h1v3h1v2h1c0.33,1.33.67,2.67,1,4h1c9.92,22.51,8,56.65,8,89v36q1.995,12,4,24h1c0.67,3,1.33,6,2,9h1v2h1v3h1c0.67,2,1.33,4,2,6h1v2h1v2h1c0.67,2,1.33,4,2,6,0.67,0.33,1.33.67,2,1,0.67,2,1.33,4,2,6,32.41,51.5,75.55,91.55,125,126,0.67,1,1.33,2,2,3h2c0.67,1,1.33,2,2,3h2c0.33,0.67.67,1.33,1,2h2c0.33,0.67.67,1.33,1,2,1,0.33,2,.67,3,1,0.67,1,1.33,2,2,3h2v1c1,0.33,2,.67,3,1,0.33,0.67.67,1.33,1,2h2c0.67,1,1.33,2,2,3h2v1c1,0.33,2,.67,3,1,0.33,0.67.67,1.33,1,2h2c0.67,1,1.33,2,2,3h2c0.33,0.67.67,1.33,1,2h2v1c1,0.33,2,.67,3,1,0.33,0.67.67,1.33,1,2h2c0.67,1,1.33,2,2,3h2c0.33,0.67.67,1.33,1,2,1,0.33,2,.67,3,1v1h2c0.33,0.67.67,1.33,1,2h2c0.33,0.67.67,1.33,1,2h2c0.67,1,1.33,2,2,3h2c0.33,0.67.67,1.33,1,2,1,0.33,2,.67,3,1v1h2c0.33,0.67.67,1.33,1,2h2c0.33,0.67.67,1.33,1,2h2c0.67,1,1.33,2,2,3h2v1c1,0.33,2,.67,3,1,0.33,0.67.67,1.33,1,2h2c0.67,1,1.33,2,2,3h2v1c1,0.33,2,.67,3,1,0.33,0.67.67,1.33,1,2h2c0.67,1,1.33,2,2,3h2c0.33,0.67.67,1.33,1,2h2c0.33,0.67.67,1.33,1,2,1,0.33,2,.67,3,1,0.67,1,1.33,2,2,3h2c0.33,0.67.67,1.33,1,2h2c0.67,1,1.33,2,2,3h2c0.67,1,1.33,2,2,3h2c0.67,1,1.33,2,2,3h2c0.67,1,1.33,2,2,3h2c1,1.33,2,2.67,3,4h2c1,1.33,2,2.67,3,4h2c1,1.33,2,2.67,3,4h2c1,1.33,2,2.67,3,4h2c1.67,2,3.33,4,5,6h2q3.495,4.005,7,8h2q6,6.495,12,13c8.25,8.25,17.05,15.39,24,25q4.5,4.005,9,8v2c2,1.67,4,3.33,6,5v2c2,1.67,4,3.33,6,5v2c0.67,0.33,1.33.67,2,1v1c0.67,0.33,1.33.67,2,1v2c1.67,1.33,3.33,2.67,5,4v2c1.33,1,2.67,2,4,3v2c0.67,0.33,1.33.67,2,1,0.33,1,.67,2,1,3,1.33,1,2.67,2,4,3v2c1,0.67,2,1.33,3,2v2c1,0.67,2,1.33,3,2v2c1,0.67,2,1.33,3,2v2c1,0.67,2,1.33,3,2,0.33,1,.67,2,1,3,0.67,0.33,1.33.67,2,1v2c0.67,0.33,1.33.67,2,1v2c1,0.67,2,1.33,3,2v2c0.67,0.33,1.33.67,2,1v2c1,0.67,2,1.33,3,2v2h1c0.33,1,.67,2,1,3,0.67,0.33,1.33.67,2,1v2c1,0.67,2,1.33,3,2v2c0.67,0.33,1.33.67,2,1,0.33,1,.67,2,1,3h1v2c0.67,0.33,1.33.67,2,1v2c0.67,0.33,1.33.67,2,1v2c0.67,0.33,1.33.67,2,1v2c0.67,0.33,1.33.67,2,1v2c0.67,0.33,1.33.67,2,1v2c0.67,0.33,1.33.67,2,1v2c0.67,0.33,1.33.67,2,1v2c0.67,0.33,1.33.67,2,1v2c0.67,0.33,1.33.67,2,1,0.33,1.33.67,2.67,1,4,0.67,0.33,1.33.67,2,1v2c0.67,0.33,1.33.67,2,1v2c0.67,0.33,1.33.67,2,1,0.33,1.33.67,2.67,1,4,0.67,0.33,1.33.67,2,1v2c0.67,0.33,1.33.67,2,1v2c0.67,0.33,1.33.67,2,1v2h1v2c0.67,0.33,1.33.67,2,1,0.33,1.33.67,2.67,1,4h1c0.33,1,.67,2,1,3,0.67,0.33,1.33.67,2,1v2h1v2c0.67,0.33,1.33.67,2,1,0.33,1.33.67,2.67,1,4,0.67,0.33,1.33.67,2,1,0.33,1.33.67,2.67,1,4,0.67,0.33,1.33.67,2,1,0.33,1.33.67,2.67,1,4,0.67,0.33,1.33.67,2,1,0.33,1.33.67,2.67,1,4,0.67,0.33,1.33.67,2,1,0.67,2,1.33,4,2,6,0.67,0.33,1.33.67,2,1,0.33,1.33.67,2.67,1,4,0.67,0.33,1.33.67,2,1,0.33,1.33.67,2.67,1,4,0.67,0.33,1.33.67,2,1,0.67,2,1.33,4,2,6,0.67,0.33,1.33.67,2,1,0.67,2,1.33,4,2,6,0.67,0.33,1.33.67,2,1,0.33,1.33.67,2.67,1,4,0.67,0.33,1.33.67,2,1,0.67,2,1.33,4,2,6,0.67,0.33,1.33.67,2,1,0.67,2,1.33,4,2,6,0.67,0.33,1.33.67,2,1v2h1v2h1v2h1v2c0.67,0.33,1.33.67,2,1,0.67,2,1.33,4,2,6,0.67,0.33,1.33.67,2,1v2h1v2h1v2h1v2c0.67,0.33,1.33.67,2,1,0.67,2,1.33,4,2,6,0.67,0.33,1.33.67,2,1v2h1v2h1v2h1v2c24.38,38.77,44.28,82.64,61,129v4h1v3h1v3h1v3h1c0.33,2.33.67,4.67,1,7h1c0.33,2.33.67,4.67,1,7h1v4h1v4h1v4h1v4h1v5c2.29,7.08,3.8,16.73,6,24v6c2.3,7.66,2.74,18.16,5,26v8h1v9h1v9h1v10h1v11h1q0.495,11.505,1,23h1v13h1v12s0.83,0.04,1,2v11h1v12h1v11h1q1.005,15,2,30h1v8h1v8h1v7h1v7h1v6h1v6h1v6h1c0.33,3.33.67,6.67,1,10h1v5h1v4h1v4h1v4h1c0.33,2.67.67,5.33,1,8h1c0.33,2,.67,4,1,6h1c0.67,2,1.33,4,2,6h1v2h1v3h1v2h1v2h1c0.33,1.33.67,2.67,1,4h1c0.33,1.67.67,3.33,1,5h1v2h1c0.67,2,1.33,4,2,6h1v3h1v2h1v2h1c0.67,2,1.33,4,2,6h1v3h1v2h1v2h1c0.67,2,1.33,4,2,6h1c0.33,1.67.67,3.33,1,5h1c0.67,2,1.33,4,2,6h1v3h1c0.67,2,1.33,4,2,6h1v2h1v2h1v3h1v2h1v2h1c0.67,2,1.33,4,2,6h1v4h1v4h1c0.33,3.67.67,7.33,1,11,2.38,7.77,3.64,18.22,6,26v6c1.9,6.19,3.13,14.86,5,21v6c5.53,18.02,6.52,39.96,12,58q1.005,7.995,2,16h1v6c1.89,6.14,3.12,14.8,5,21v6c3.48,11.31,4.45,25.67,8,37,0.33,3.33.67,6.67,1,10h1v3h1v2h1v2h1v2h1v2h1v2h1v2h1v2h1v2h1c0.67,2,1.33,4,2,6h1v3h1c0.67,2,1.33,4,2,6h1v2h1v2h1v2h1v2h1v2h1v2h1v2h1v2h1v2h1v2h1v3h1c0.67,2,1.33,4,2,6h1v2h1v2h1v2h1v2h1v2h1v2h1v2h1v2h1v2h1v2h1v3h1c0.67,2,1.33,4,2,6h1v2h1v2h1v2h1v2h1v2h1v2h1v2h1v2h1v2h1v3h1c0.67,2,1.33,4,2,6h1v2h1v2h1v2h1v2h1v2h1v2h1v2h1v2h1v2h1v2h1v3c2.95,7.31,3.61,18,6,26v6h1v6h1v6h1v6c5.61,18.57,5.5,41.37,11,60v7c2.05,6.86,2.78,16.33,5,23v4h1v3h1v3h1v3h1c0.33,2,.67,4,1,6h1v2h1v3h1v3h1v3h1v3c4.94,12.36,9.07,26.63,14,39,0.67,3,1.33,6,2,9,4.55,11.38,8.46,24.61,13,36,0.67,3,1.33,6,2,9,4.15,10.41,7.85,22.59,12,33,0.67,3,1.33,6,2,9,6.38,14.6,11.03,31.99,17,47v3h1v3h1v3h1v3c7.64,19.22,13.38,40.77,21,60v3h1v3h1v3h1v3h1c0.33,3.33.67,6.67,1,10h1v19h1c1.33,4.71-.05,23.6-1,27v30h-1q-1.5,30.495-3,61h-1v11h-1v10h-1v10h-1v9h-1v8h-1v7h-1v8h-1v6h-1v6h-1v6h-1v5h-1v4h-1c-0.33,2.67-.67,5.33-1,8q-3.495,7.005-7,14c-0.67.33-1.33,0.67-2,1v2c-0.67.33-1.33,0.67-2,1v2c-0.67.33-1.33,0.67-2,1v2c-1,.67-2,1.33-3,2v2c-1.33,1-2.67,2-4,3v2c-2,1.67-4,3.33-6,5v2q-4.5,4.005-9,8v2q-7.005,6.495-14,13v2q-5.505,4.995-11,10v2c-2,1.67-4,3.33-6,5v2c-1.33,1-2.67,2-4,3v2c-0.67.33-1.33,0.67-2,1v1c-0.67.33-1.33,0.67-2,1v2c-0.67.33-1.33,0.67-2,1v2c-1,.67-2,1.33-3,2v2c-0.67.33-1.33,0.67-2,1-0.33,1.33-.67,2.67-1,4-0.67.33-1.33,0.67-2,1-0.33,1.33-.67,2.67-1,4-0.67.33-1.33,0.67-2,1l-9,21v3h-1v3h-1v4h-1v4h-1v5h-1v6h-1v10c-0.89,3.18-2.3,15.39-1,20h1v7h1v4h1v3h1v3h1v3h1c0.33,1.33.67,2.67,1,4,1,0.67,2,1.33,3,2v2c1,0.67,2,1.33,3,2,3.38,3.43,7.37,7.95,12,10,3,0.67,6,1.33,9,2v1c3,0.33,6,.67,9,1,5.33,1.61,12,1.99,19,2h10v1h15v1h7v1h4v1h3v1c1.33,0.33,2.67.67,4,1v1h2c0.33,0.67.67,1.33,1,2h2v1c0.67,0.33,1.33.67,2,1v2c1,0.67,2,1.33,3,2v2h1c0.33,1.33.67,2.67,1,4h1c0.33,2,.67,4,1,6h1v4h1v7h1c1.84,6.54-.7,25.5-2,30q-1.005,9-2,18h-1c-0.33,3-.67,6-1,9h-1v4h-1v4h-1v4h-1v4c-4.64,12.99-8.13,28.07-13,41-0.67,3.33-1.33,6.67-2,10h-1v3h-1c-0.33,2.33-.67,4.67-1,7h-1v4h-1c-0.33,2.67-.67,5.33-1,8h-1c-0.8,2.68-.01,7.8,1,9,1.19,4.51,4.12,4.39,7,7q3.495,4.005,7,8h2c1,1.33,2,2.67,3,4q4.005,3.495,8,7v1c0.67,0.33,1.33.67,2,1v2q3.495,3,7,6v2c1,0.67,2,1.33,3,2v2c1,0.67,2,1.33,3,2v2c1,0.67,2,1.33,3,2v2c0.67,0.33,1.33.67,2,1,0.33,1.33.67,2.67,1,4,0.67,0.33,1.33.67,2,1,0.67,2,1.33,4,2,6h1v2h1c0.67,2,1.33,4,2,6h1v3h1v3h1v2h1v3h1c0.33,2.67.67,5.33,1,8h1v4h1v5h1v7h1v12h1v17h-1q-0.495,10.5-1,21h-1q-0.495,23.505-1,47c-1.7,6.2.74,16.6-1,23-0.93,3.41-2.38,23.35-1,28,5.64,18.98,9.55,40.06,16,58v4h1v3h1v4c7.75,21.32,14.15,44.76,23,65,0.33,2,.67,4,1,6h1v2h1v3h1v3h1v2h1v3h1v2h1c0.33,1.67.67,3.33,1,5h1v3h1v2h1v3h1v2h1v3h1v2h1v3h1c0.33,1.33.67,2.67,1,4h1v3h1c0.33,1.33.67,2.67,1,4h1v3h1v2h1c0.33,1.33.67,2.67,1,4h1v3h1v2h1c0.67,2,1.33,4,2,6h1v3h1c0.33,1.33.67,2.67,1,4h1c0.67,2,1.33,4,2,6h1c0.33,1.33.67,2.67,1,4h1c0.33,1.33.67,2.67,1,4h1v2h1v2h1v2h1v2h1v2h1v2h1v2h1v2h1v2c0.67,0.33,1.33.67,2,1v2h1v2h1v2h1v2h1v2c0.67,0.33,1.33.67,2,1,0.67,2,1.33,4,2,6,0.67,0.33,1.33.67,2,1,0.67,2,1.33,4,2,6,0.67,0.33,1.33.67,2,1,0.33,1.33.67,2.67,1,4,0.67,0.33,1.33.67,2,1,0.33,1.33.67,2.67,1,4,0.67,0.33,1.33.67,2,1,0.67,2,1.33,4,2,6,0.67,0.33,1.33.67,2,1,0.33,1.33.67,2.67,1,4,0.67,0.33,1.33.67,2,1,0.33,1.33.67,2.67,1,4,0.67,0.33,1.33.67,2,1,0.67,2,1.33,4,2,6,0.67,0.33,1.33.67,2,1v2h1v2c0.67,0.33,1.33.67,2,1v2h1v2h1v2h1v2c0.67,0.33,1.33.67,2,1v2h1v2h1v2h1v2c0.67,0.33,1.33.67,2,1v2h1v2h1v2h1v2h1v2h1v2h1c0.33,1.33.67,2.67,1,4h1v2h1v2h1v2h1v2h1c0.33,1.33.67,2.67,1,4h1v2h1v3h1v2h1c0.33,1.33.67,2.67,1,4h1v3h1v2h1v3h1v2h1v3h1v2h1q6,19.995,12,40c0.33,3.33.67,6.67,1,10,8.85,29.05,1.52,65.36-7,89v4h-1c-0.33,2-.67,4-1,6h-1v3h-1v3h-1v3h-1v3h-1v3h-1v3h-1c-0.67,3-1.33,6-2,9-10.73,24.6-18.96,51.75-29,77-0.33,2-.67,4-1,6h-1v3h-1v3h-1v3h-1v3h-1v4h-1v3h-1v3h-1c-0.33,2.67-.67,5.33-1,8h-1v4h-1v4h-1v4h-1v4h-1v5h-1q-1.005,10.005-2,20c-1.05,3.7-2.42,26.02-1,31h1v6h1v4h1v4h1v3h1v3h1c0.67,2,1.33,4,2,6h1c0.33,1.33.67,2.67,1,4,0.67,0.33,1.33.67,2,1v2c0.67,0.33,1.33.67,2,1v2c1.33,1,2.67,2,4,3v2h1c1,1.33,2,2.67,3,4h2c1.33,1.67,2.67,3.33,4,5h2c0.33,0.67.67,1.33,1,2h2c0.33,0.67.67,1.33,1,2h2v1h2v1h2v1h2v1h2v1h2v1h2v1c2.77,1.71,1.81-.9,3,3h1C5401.67,5875,5401.33,5876,5401,5877ZM277,271c-1.072,1.242-1.787,1.045-3,2v1h-2c-2.224,1.769-7.847,13.207-6,19h1l1,5,4,3v1c1.678,1.158,2.292-.02,4,2a118.546,118.546,0,0,0,14-1c1.538-2.446,1.213-.621,3-2l1-2h1c1.712-2.337,1.852-5.167,4-7,0.314-4.241,1.728-8.171-1-11v-2h-1l-5-6h-2C287.572,270.513,281.994,270.89,277,271ZM949,519v2l2,1v8l-16,17-3,1-6,7h-2l-5,6h-2l-4,5h-2l-5,6h-2q-0.5,1-1,2h-1l-2,3h-2l-7,8-3,1-3,4h-1v2l-2,1v2h-1v2h-1q1.5,12.5,3,25h-1v2h-1v2l-4,3q-0.5,1-1,2h-2l-2,3c-3.963,3.9-6.817,4.934-7,13h1v4h1v2h1v2h1v2h1v2h1v2l2,1v2l2,1c4.865,7.268,8.09,16.848,20,17l9-3v-1l6-2v-1l6-1v-1l39-5,4-5h1l7-16,2-1v-2h1q0.5-1.5,1-3l2-1v-2l5-4v-2l19-16h2q0.5-1,1-2l3-1v-1l4-1c0.33-.667.67-1.333,1-2h2v-1l6-2c0.33-.667.67-1.333,1-2h2v-1h2v-1c4.7-2.521,9.41-2.2,11-8h1c1.42-2.51-.69-8.889-1-10-1.08-3.845.56-8.384,1-11,1.26-.6,1.92-2.623,4-2,1.33,1.667,2.67,3.333,4,5,1.61,1.023,17.75,2.066,21,1v-1h3c0.33-.667.67-1.333,1-2h2v-1c1.97-1.526,2.44-1.749,6-2,5.14,5.895,22.55,6,34,6h47c4.45,1.241,17.51,3.839,24,2v-1h7v-1c1.67-.333,3.33-0.667,5-1a21.874,21.874,0,0,1,4-5c0.86-11.857.92-24.923-8-30-2.64-2.594-19.01-5.951-26-4v1l-23,1v1h-10v1h-12v1c-4.6,1.284-16.84-.087-20-1-4.19-1.212-8.92.138-12-2-4.01-2.78-.29-7.415-2-12h-1v-2c-0.67-.333-1.33-0.667-2-1v-2h-1v-7s-0.66-.119-1-2l-3-1v-1h-2v-1h-4v-1c-4.42-1.565-5.57,1.1-7-4h-1v-3c1.28-1.064,1.04-1.764,2-3h1v-2q5.505-5,11-10c9.22-9.22,16.09-18.31,33-20,2.28,4.391,10.93,14.169,19,12,2.35-.632,4.43-1.757,8-2a12.638,12.638,0,0,1,1,5h-1v4h-1c-2.31,7.659,2.76,12.512,4,17,4.35,1.066,4.66,2.809,11,3v-1h4v-1l6-2v-1l4-1c0.33-.667.67-1.333,1-2h2v-1h2v-1h2v-1h2c0.33-.667.67-1.333,1-2l6-2c0.67-1,1.33-2,2-3h2c0.33-.667.67-1.333,1-2h3v-1h2v-1h4v-1l72-1c0.67-1,1.33-2,2-3,2.94-2.9,2.11-11.209,2-17a9.094,9.094,0,0,1-5-6c15.67-8.852,19.61-29.7,25-49,1.01-3.628-.33-9.89-1-12-0.33-2.666-.67-5.334-1-8h-1c-0.33-1.333-.67-2.667-1-4-0.67-.333-1.33-0.667-2-1v-2c-0.67-.333-1.33-0.667-2-1v-2c-0.67-.333-1.33-0.667-2-1v-1h-2c-0.33-.667-0.67-1.333-1-2h-4v-1h-1v1h-4v1h-2c-0.33.667-.67,1.333-1,2h-2v1c-1.33,1-2.67,2-4,3v2c-1.67,1.333-3.33,2.667-5,4-0.33.667-.67,1.333-1,2h-2c-0.33.667-.67,1.333-1,2h-2v1l-4,1v1l-7,1c-7.37,2.424-14.97,2.786-25,3l-7,1v-1h-16v-1h-6l-12-4c-0.33-.667-0.67-1.333-1-2h-2c-0.33-.667-0.67-1.333-1-2h-1v-2c-0.67-.333-1.33-0.667-2-1v-3h-1v-2h-1v-3h-1v-4h-1c-0.33-2.666-.67-5.334-1-8h-1c-0.33-1.333-.67-2.667-1-4h-1v-2c-0.67-.333-1.33-0.667-2-1v-2c-0.67-.333-1.33-0.667-2-1v-1h-2c-0.33-.667-0.67-1.333-1-2h-2v-1c-2.02-1.14-2.42-.2-4-2l-9-1v1h-4v1l-5,1v1h-2v1h-3v1h-3v1l-7,1v1h-4v1h-4v1h-4v1h-5v1h-5v1h-5v1h-6c-4.3,1.274-20.46,3.8-27,2-3.34-.92-17.28-2.429-22-1v1h-4v1h-3v1l-6,2v1h-2c-0.33.667-.67,1.333-1,2h-2c-0.33.667-.67,1.333-1,2h-2c-0.67,1-1.33,2-2,3h-2c-0.33.667-.67,1.333-1,2h-2v1l-4,1v1h-3v1h-2v1l-6,1v1h-2v1h-3v1h-2v1h-3v1h-2v1h-2q-0.5,1-1,2h-2v1l-4,3v2l-3,2v2l-2,1q-1,3-2,6h-1v2h-1q-1,3-2,6h-1q-0.5,3-1,6h-1v2h-1q-0.5,3-1,6h-1v2h-1q-0.5,3-1,6h-1q-0.5,2-1,4h-1v2h-1v2h-1v2h-1v2h-1v2h-1v2l-2,1q-0.5,2-1,4h-1v2h-1v2h-1q-1,3-2,6h-1q-1,4.5-2,9h-1v5h-1c-1,3.506,1.96,14.048,3,16h1v2l2,1v2l3,1,2,3h2q0.5,1,1,2l4,1C943.088,514.712,945.161,517.976,949,519Zm585,539c-1.33-.33-2.67-0.67-4-1v1c-3.97,1.24-1.23.24-3,3h-1v2c-0.73,1.02-7.58,4.55-9,5h-15q-9-.495-18-1v1h-11v-1h-3v-1c-1-.33-2-0.67-3-1v-2c-1.33-1-2.67-2-4-3v-1c-1.68-1.16-2.29.02-4-2-5.05-.12-17.27.25-20,2-0.67,1-1.33,2-2,3q-4.005,2.505-8,5c-6.86,2.52-9.73-3.18-14,4-1.96,1.89-2.05,5.05-2,9,2.98,2.68,2.09,5.71,7,7,3.21,2.98,8.61,1.1,14,2a102.966,102.966,0,0,0,16,1c26.69,0,59.51,2.29,83-2a21.939,21.939,0,0,1,4-5v-16Zm-200,1c-2.25,2.5-3.84.96-5,5-4.8,4.11-1.02,17.31,0,22a93.867,93.867,0,0,0,10,4h10v1c4.75,1.33,23.57-.04,27-1h13v-1q6.495-.495,13-1c2.8-4.75,5.81-4.95,6-13-2.98-2.68-2.09-5.71-7-7-2.55-2.46-4.21-.84-8-2-4.34-1.33-20.01-5.69-26-4-2.99.84-11.18,3.53-16,2v-1C1345.71,1061.12,1340.38,1059.19,1334,1059Zm163,135c1.33-.33,2.67-0.67,4-1v-1c6.33-2.27,9.2,2.38,13-4h1c0.33-2.33.67-4.67,1-7h-1v-4h-1v-3h-1v-3h-1v-5h-1q0.495-10.005,1-20-4.995-4.005-10-8c-1.63-2.24-1.93-4.29-4-6,0.22-4.5.53-4.94,2-8h1v-4h1c0.86-2.92-.34-7.55-1-9-3.91-8.63-8.49-10.17-21-10-2.99,3.27-6.57,1.66-8,7-5.79,4.94-1.35,13.89-1,21q-6,4.005-12,8c-0.33,1.33-.67,2.67-1,4h-1v3q-2.505,8.505-5,17c-0.67.33-1.33,0.67-2,1v2c-0.67.33-1.33,0.67-2,1v2c-1,.67-2,1.33-3,2v2c-1,.67-2,1.33-3,2v2c-0.67.33-1.33,0.67-2,1-0.33,1.33-.67,2.67-1,4-0.67.33-1.33,0.67-2,1v2h-1v2h-1v2h-1v2h-1v4h-1c-0.82,2.44-1.26,11.93,0,14h1c1.05,4.32,4.11,6.65,8,8h5q3.495,4.995,7,10h2v1c1.33,0.33,2.67.67,4,1v1h6v1h2c1,1.33,2,2.67,3,4h2v1h6v1c6.9,1.92,22.93-4.11,25-7v-2c0.67-.33,1.33-0.67,2-1v-7c-1.36-1.06-1.81-2.78-3-4-2.83-2.9-10.48-6.33-8-14h1v-3h1C1496.33,1196,1496.67,1195,1497,1194Zm447-70c-2.33,1.67-4.67,3.33-7,5v2c-0.67.33-1.33,0.67-2,1-0.33,1.33-.67,2.67-1,4-2.33,1.67-4.67,3.33-7,5-4.96,2.21-23.89,3.07-30,1v-1c-2-.33-4-0.67-6-1v-1c-1.33-.33-2.67-0.67-4-1v-1h-3v-1h-2v-1h-3v-1c-1.33-.33-2.67-0.67-4-1v-1c-3.33-.67-6.67-1.33-10-2-3.04-.99-12.01-3.54-17-2v1c-1.67.33-3.33,0.67-5,1a73.3,73.3,0,0,0-3,7q0.495,8.505,1,17h-1v5h-1v2h-1v2h-1v2h-1c-1.62,3.06-1.89,5.37-2,10,12.13,6.57,31.23,6,50,6h89v-1h5v-1h3v-1h3v-1c1-.33,2-0.67,3-1,0.33-1,.67-2,1-3,0.67-.33,1.33-0.67,2-1,0.33-1.33.67-2.67,1-4h1c2.46-5.62,1.97-14.06,2-22-2.1-1.1-4.63-3.23-7-4h-12v-1h-9v-1c-1.33-.33-2.67-0.67-4-1-0.67-1-1.33-2-2-3h-1v-2c-1.7-3.21-2.85-6.18-6-8C1951.11,1124.04,1947.95,1123.95,1944,1124Zm-395,53,9,3h9v1h34v-1h16v-1h9v-1h7v-1c1.75-.64,2.61-0.44,4-1,2.39-4.1,10.74-15.43,8-24-0.71-2.22-2.39-4.21-3-7-2.6-1.39-5.1-4.05-8-5q-12,.495-24,1v-1c-1.76-.8-3.91-0.64-5-2v-2c-0.67-.33-1.33-0.67-2-1v-2c-1-.67-2-1.33-3-2v-2h-1c-0.33-.67-0.67-1.33-1-2-1.59-1.14-2.3-.01-4-2-7.54-.12-12.8.48-18,2q-10.5.495-21,1c-2.23.76-4.2,2.37-7,3-2.34,4.26-3.94,4.92-4,12,1.82,1.57.86,1.99,2,4h1v2c1,0.67,2,1.33,3,2,0.33,1.67.67,3.33,1,5,0.13,0.43,1.33.2,1,2-0.56,3.06-6.25,10.93-5,15h1C1548.33,1174.33,1548.67,1175.67,1549,1177Zm240-52c-1.71,2.01-2.33.84-4,2-1,1.33-2,2.67-3,4h-1v2q-3.495,3-7,6c-3.81,1.72-11.64,1-17,1h-54v-1c-1.67-.33-3.33-0.67-5-1-0.33-.67-0.67-1.33-1-2h-2c-0.33-.67-0.67-1.33-1-2h-2c-0.33-.67-0.67-1.33-1-2h-2c-0.33-.67-0.67-1.33-1-2h-2v-1h-2v-1h-3v-1h-4c-1.45-.46-6.05-1.91-9-1v1c-1.67.33-3.33,0.67-5,1-0.67,1-1.33,2-2,3h-1c-1.4,2.18-1.02,5.32-2,8h-1v5h-1v4h-1v4h-1v4h-1v5c-2.17,6.83-3.7,9.14-1,16a13.428,13.428,0,0,1,4,3c6.72,0.09,14.61.34,19-2,0.33-.67.67-1.33,1-2,3.11-2,5.04-2.79,10-3,1.87,2.11,4.55,2.39,7,4,0.33,0.67.67,1.33,1,2h2v1h3v1h29v1h3c0.33,0.67.67,1.33,1,2h2c0.67,1,1.33,2,2,3h1c0.33,1,.67,2,1,3,2,1.67,4,3.33,6,5,9.83,0.18,13.24-.07,18-5,0.67-.33,1.33-0.67,2-1v-2c0.67-.33,1.33-0.67,2-1v-2c0.73-1,3.04-1.79,4-3q22.995-1.005,46-2v-1c1.67-.33,3.33-0.67,5-1,0.67-1,1.33-2,2-3h1v-2c4.07-7.23,5.71-15.9,2-25-1.95-1.01-4.08-3.15-6-4-2.33-.33-4.67-0.67-7-1v-1h-3v-1h-2v-1h-2c-1.67-2.33-3.33-4.67-5-7v-2c-2-1.67-4-3.33-6-5h-6Zm-422,3c-1.72,2.13-2.03.57-3,4h-1v2h-1v21h1c1.22,2.39-.38,1.47,2,3v1c2,0.33,4,.67,6,1v1h5v1h8c7.86,2.19,32.17,2.29,40,0h6c2.22-.74,4.21-2.38,7-3,2.81-6.19,3.04-8.46,3-18-1.67-2.33-3.33-4.67-5-7-2.27-2.29-5.91-3.58-8-6-7.89.01-11.59,1.2-17,3h-4c-2.59.84-8.58,3.26-13,2C1384.45,1130.56,1378.34,1128.01,1367,1128Zm-24,103h2v-1c1,0.33,2,.67,3,1,0.24,1.66,1,2,1,2,1.91,6.44-2.45,10.45,3,14,2.53,2.54,7.92,1.98,13,2q13.005,0.495,26,1,7.005,3.495,14,7c4.88,1.45,12.93-4.43,16-6v-1c3.33-.33,6.67-0.67,10-1v-1c2-.33,4-0.67,6-1,0.33-.67.67-1.33,1-2h2v-1c0.67-.33,1.33-0.67,2-1v-2c0.67-.33,1.33-0.67,2-1,1.84-2.94,2.02-6.22,2-11-1.1-.6-1.57-1.74-2-2h-2v-1h-4v-1h-15v-1h-6l-19,3v-1h-13v-1h-4v-1h-3c-0.33-.67-0.67-1.33-1-2h-2c-0.33-.67-0.67-1.33-1-2h-2v-1h-2v-1h-3v-1c-3.67.33-7.33,0.67-11,1-8.91,0-17.39-2.33-25,1-3.72,1.63-8.27,8.01-15,6v-1h-3v-1h-2v-1h-2c-0.33-.67-0.67-1.33-1-2-1.33-.33-2.67-0.67-4-1v-1q-7.5-.495-15-1v1h-12v1c-3.33.33-6.67,0.67-10,1-1.86.78-3.97,3.25-5,5-3.31,3.29-2.39,15.47,0,19h1c0.67,1,1.33,2,2,3h2v1q6.495,0.495,13,1v1h15v-1h3v-1h2v-1h3v-1c5.48-1.74,9.93,2.04,13,3h18c1.49-2.35,3-1.65,4-3Q1340.505,1238.5,1343,1231Zm334,80c8.55-1.43,19.69-8.44,16-19v-4h-1c-1.11-4.15-3.65-5.07-7-7v-1h-2v-1h-2v-1h-2c-0.67-2-1.33-4-2-6-2.33-1.67-4.67-3.33-7-5h-2v-1h-3v-1h-3v-1h-5v-1h-28v-1h-4v-1c-1.33-.33-2.67-0.67-4-1-1.67-2-3.33-4-5-6-0.67-.33-1.33-0.67-2-1v-2c-1-.67-2-1.33-3-2v-2c-0.67-.33-1.33-0.67-2-1v-2c-0.67-.33-1.33-0.67-2-1-1.33-1.67-2.67-3.33-4-5-3.73-2.5-20.72-6.5-27-3-1,1.33-2,2.67-3,4h-2c-0.33.67-.67,1.33-1,2h-2v1h-2v1c-2,.33-4,0.67-6,1v1c-2,.67-4,1.33-6,2v1h-2c-0.67,1-1.33,2-2,3h-2c-0.33.67-.67,1.33-1,2-1.33,1-2.67,2-4,3-1.16,1.68-.02,2.27-2,4,0.33,3.67.67,7.33,1,11h1v2c0.67,0.33,1.33.67,2,1,5.72,8.53,13.11,14.76,24,18h8v-1h7c5.52-1.58,11.88-2.84,18-1h5v1h2v1c1.33,0.33,2.67.67,4,1,0.33,0.67.67,1.33,1,2,2.36,1.59,4.1,2.11,6,4,1,1.33,2,2.67,3,4h2c0.67,1,1.33,2,2,3h2v1c1.33,0.33,2.67.67,4,1v1c2.67,0.33,5.33.67,8,1v1c3.33,0.33,6.67.67,10,1,1.33,1.67,2.67,3.33,4,5h1v2c0.67,0.33,1.33.67,2,1v2c0.67,0.33,1.33.67,2,1,4.51,4.75,8.49,8.17,17,9v-1h3v-1c3.52-2.83,3.13-3.68,3-10-1.67-2-3.33-4-5-6h-1v-3Zm31,6c1.33,0.33,2.67.67,4,1v1h18v1h10c3.49,0.98,16.74,3.56,22,2v-1h4v-1h14q18.495,0.495,37,1c2.67-1,5.33-2,8-3,4.2-7.61,5.03-14.13,3-25-2.66-1.41-4.22-2.03-9-2-1.6,2.43-.77.65-3,2v1h-2c-0.33.67-.67,1.33-1,2h-3v1c-2.23.88-11.56,1.98-15,1v-1h-6v-1h-6c-2.63-.81-9.8-4.2-14-3-2.54.73-10.76,4.51-15,3v-1h-2v-1c-1.33-.33-2.67-0.67-4-1-0.33-.67-0.67-1.33-1-2h-2c-0.33-.67-0.67-1.33-1-2h-4v-1c-6.49-1.97-15.89,1.82-20,3h-13v1c-1.67.33-3.33,0.67-5,1-1.76,3.32-2.06,4.37-2,10h1c0.33,1.67.67,3.33,1,5h1v2c0.67,0.33,1.33.67,2,1v2h1A8.051,8.051,0,0,1,1708,1317Zm-109-17c-1-.33-2-0.67-3-1v-1h-2v-1h-11c-1.76,1.99-1.97.84-4,2v1h-2c-0.67,1-1.33,2-2,3a22.843,22.843,0,0,1-9,5h-16v1q-8.505-.495-17-1c-1.42-.46-6.14-2.88-7-4v-2h-1v-1c-1-.33-2-0.67-3-1v-1h-11q-15,1.005-30,2c-1,1.33-2,2.67-3,4-1.69,1.63-3.43,13.63-2,18h1c0.33,1.67.67,3.33,1,5,1,0.67,2,1.33,3,2v1h3v1h3v1h7v1q22.995,0.495,46,1c8.61,0,20.07.95,27-1h9c6.91-.05,19.23-0.85,22-5,2.07-2.02,5.94-17.18,4-23h-1v-3h-1C1599.67,1302,1599.33,1301,1599,1300Zm81,600v1c-1.67.33-3.33,0.67-5,1-0.67,1-1.33,2-2,3h-1v2c-0.67.33-1.33,0.67-2,1v2h-1c-1,1.33-2,2.67-3,4h-3v1h-4v1h-6c-7.06,2.04-33.08,3.88-41,1-8.07-2.93-11.59-12.27-19-15h-7v-1q-10.005,1.005-20,2c-2.23.79-4.19,2.4-7,3-1.6,3.46-3.5,5.16-4,10h1c0.33,1.67.67,3.33,1,5,1,0.67,2,1.33,3,2,1.24,1.81,4.18,8.21,3,12h-1v3h-1c-1.66,4.19-1.9,7.21-2,13,8.2,3.68,16.05,5.82,27,4h15c3.64-1.02,17.94-2.41,23-1v1h146c2.33,0.33,4.67.67,7,1v-1c3.33-.67,6.67-1.33,10-2v-1h2v-1h3v-1c6.58-2.1,13.14,1.78,17,3h5v1h7v1h9v1h18q18-.495,36-1v-1h6v-1c1.33-.33,2.67-0.67,4-1,0.33-1,.67-2,1-3h1v-2h1v-4c3.08-9.81.03-22.95-8-25-5.86-5.81-23.56,1.99-33-1v-1h-3v-1h-2q-3.495-3-7-6v-2h-1c-0.67-1-1.33-2-2-3h-2c-0.33-.67-0.67-1.33-1-2h-3v-1c-1.97-.71-10.39-1-12,0v1a12.846,12.846,0,0,0-6,3v1h-2v1c-1,.67-2,1.33-3,2v2c-0.67.33-1.33,0.67-2,1v2c-0.67.33-1.33,0.67-2,1v2c-1.33,1-2.67,2-4,3v1h-6c-1.76-2-2.12-.83-4-2-0.33-.67-0.67-1.33-1-2h-3v-1h-3v-1h-6v-1h-26v1h-4c-4.61.11-18.72,0.98-21-1-4.97-1.48-2.69-2.57-5-6-1-.67-2-1.33-3-2v-2a50.061,50.061,0,0,0-6-4c-3.58-1.25-10.36,1.86-12,3-1,1.33-2,2.67-3,4-1.67.33-3.33,0.67-5,1C1693.18,1904.55,1686.19,1900.27,1680,1900ZM296,6319c-1-.33-2-0.67-3-1v-1h-2v-1h-4v-1c-3.338-1.03-8.348-.52-10,1-1.9.42-6.092,2.74-7,4v2c-5.039,7.62-4.729,11.25-1,20,6.1,3.55,6.507,6.88,17,7v-1h3c0.333-.67.667-1.33,1-2h2c3.278-2.32,9.585-12.1,7-20C298.274,6323.78,296.637,6321.78,296,6319Z"/>
      <path id="trackless_sea-3" data-name="trackless_sea" class="cls-2" d="M1679,1899c13.35,0.29,11.21,6.63,20,10,3.54-6.66,7.59-10.04,18-10,6.33,3.57,8.17,10.21,12,16,18.37,0.54,40.52-3.76,59,0,6.73,1.37,8.02,5.82,16,7,4.57-10.53,17.78-30.41,36-19,6.42,4.02,5.5,10.65,15,13,13.1,3.24,33.51-5.71,40,5,6.43,6.69,3.22,26.71,0,32-20.64,5.84-83.63,5.34-97-4q-9.495,3.495-19,7-77.49-.495-155-1c-22.21-2.96-51.18,6.57-67-4v-1c1.1-9.76,6.21-11.81,6-21l-9-12c0.65-5.88,1.76-9.59,6-12,4.66-3.78,29.45-5.83,37-2q5.505,6,11,12c15.16,5.76,47.58,1.33,60-2C1670.21,1904.91,1672.83,1903.02,1679,1899Z"/>
    </g>
  </g>

</svg>
